<svg preserveAspectRatio="none" width="100%" height="100%" overflow="visible" style="display: block;" viewBox="0 0 223 224" fill="none" xmlns="http://www.w3.org/2000/svg">
<path id="Vector" d="M98.1667 2.6381C104.015 4.8904 101.671 0.231107 105.723 0.0119018C110.685 -0.256592 107.063 4.11949 113.132 2.86254C114.5 1.76034 115.096 0.316467 117.273 0.235061C120.187 0.126058 119.53 1.59826 120.329 3.29692C122.167 3.9708 122.843 4.03578 124.585 3.1213C125.099 2.30743 125.808 0.764062 127.107 0.48683C132.972 -0.765338 128.783 4.2938 133.42 3.78429C135.645 3.53967 136.499 -1.03059 139.731 0.275573C141.47 0.92441 141.026 2.02171 142.527 3.18181C150.021 4.62094 144.168 -0.63376 151.819 0.426234C152.883 1.5252 152.374 3.05104 154.112 3.35031C154.642 3.44169 155.398 3.40451 155.851 3.119C156.51 2.64516 156.974 1.95366 157.438 1.24417C158.189 -0.0708619 162.042 -0.0617023 163.088 0.848223C163.71 1.38852 163.267 3.07493 164.733 3.35999C168.129 4.02069 168.854 -0.207409 172.017 0.0306553C173.684 0.156105 174.328 1.977 174.855 2.92679C179.228 4.83153 179.2 2.08976 181.252 0.377617C187.814 -0.137613 184.046 3.53475 187.965 3.38331C191.785 3.2357 189.219 -0.334467 195.66 0.330555C196.16 1.56641 197.673 5.36096 199.798 3.25689C202.623 0.458139 202.092 -0.262641 207.317 0.32647C207.369 3.42232 209.077 4.47919 212.556 2.59498C213.31 0.20181 213.54 0.490297 216.75 0.440494C218.579 0.412119 220.44 0.399797 222.267 0.532061C222.463 2.48215 222.839 5.10607 222.125 6.94305C220.244 7.89178 218.268 8.75276 220.012 10.6367C220.675 11.3516 221.551 11.7685 222.267 12.3915C222.462 13.6794 222.594 14.0312 222.132 15.2904C220.697 15.8907 217.071 17.1473 218.307 18.8473C218.966 19.7564 220.842 20.1561 222.071 20.5334C222.774 25.9313 220.374 23.093 217.943 26.3054C220.088 30.2958 223.324 27.6541 221.826 33.0654C220.726 33.3291 219.945 33.4871 218.82 33.6754C218.425 35.1406 218.494 35.3172 218.922 36.791C219.972 37.1823 221.799 37.6852 222.105 38.535C222.333 39.1681 222.436 40.4461 222.122 41.0756C221.133 41.8996 218.205 42.1293 218.339 43.6371C218.465 45.0673 220.829 46.0869 222.141 46.622C222.242 47.8099 222.342 48.6152 222.179 49.8159C219.103 50.7084 217.659 50.782 218.917 53.6873C220.808 54.6502 223.767 55.3937 222.07 57.7901C221.574 58.488 220.262 58.7842 219.326 59.0157C217.651 62.2237 219.858 62.1294 222.11 63.8655C222.267 64.648 222.7 66.1112 221.95 66.7408C220.484 67.97 218.447 66.7698 218.643 69.2462C218.829 71.5811 222.112 71.1136 222.418 73.2993C222.482 73.7625 222.396 74.9634 221.965 75.3754C220.634 76.1988 218.55 75.3058 218.3 77.3811C218.241 77.8787 218.562 78.9873 218.739 79.5093C219.842 79.8359 221.076 80.1743 222.122 80.5793C222.731 83.9679 222.849 83.6612 219.152 84.9782C217.128 88.1863 219.547 88.0432 222.113 89.4229C222.22 90.3184 222.597 92.1092 221.752 92.7187C220.257 93.7982 218.626 92.412 218.531 95.1743C218.477 95.5341 218.711 96.1727 219.088 96.4061C220.989 97.5735 222.166 97.2845 222.335 99.5118C222.533 102.124 218.707 101.098 218.648 103.375C218.584 105.85 222.381 105.249 222.311 107.797C222.294 108.468 222.414 108.991 221.73 109.531C220.819 110.316 218.706 110.607 218.613 111.841C218.574 112.359 218.978 113.279 219.463 113.607C221.723 115.136 223.014 115.154 221.703 117.937C219.461 119.483 217.499 119.612 219.306 122.214C220.18 122.558 221.38 123.009 222.205 123.39C222.524 124.85 222.59 125.145 222.097 126.581C219.86 127.973 218.692 127.783 219.216 130.332C221.14 131.65 222.255 131.166 222.609 133.271C223.187 136.725 218.449 135.17 218.506 138.067C218.597 140.124 222.453 139.406 222.462 141.706C222.465 142.333 222.441 143.296 221.78 143.697C218.401 145.751 216.98 146.591 222.23 148.905C222.524 150.314 222.609 150.874 222.343 152.279C218.667 154.003 217.598 155.517 222.163 157.093C222.631 158.472 222.58 159.139 222.507 160.576C220.026 161.863 216.662 162.957 220.546 165.32C221.177 165.703 221.824 165.99 222.381 166.441C222.497 167.29 222.866 169.309 222.056 169.757C219.747 171.031 217.879 169.678 219.404 173.172C220.795 173.845 222.113 174.06 222.676 175.442C223.929 178.514 219.027 178.169 219.194 180.527C219.29 181.895 221.358 182.608 222.506 183.505C222.756 186.086 222.781 186.138 220.126 187.518C219.579 187.869 219.079 189.022 219.196 189.509C219.581 191.133 222.232 190.66 222.788 192.417C224.005 196.258 219.612 194.967 219.005 197.491C218.775 198.445 221.398 199.832 222.455 200.36C222.658 201.084 223.288 202.833 222.531 203.404C221.021 204.541 219.172 203.963 219.481 206.294C219.72 208.1 222.707 207.93 222.928 209.908C223.003 210.577 222.925 211.394 222.862 212.064C220.36 213.416 217.157 214.581 221.059 216.615C221.461 216.824 222.068 217.202 222.441 217.454C223.053 218.972 223.104 221.723 222.489 223.176C221.99 224.349 214.672 223.966 213.333 223.819C212.846 222.772 212.73 222.347 212.546 221.239C208.417 220.106 207.863 220.845 206.622 223.711C205.064 223.984 204.198 224.016 202.592 223.995C202.264 223.104 201.982 222.345 201.571 221.479C200.269 220.707 198.447 219.915 197.205 221.192C196.398 222.019 196.309 223.669 194.814 223.779C191.506 224.021 191.528 223.955 190.715 221.616C186.976 219.834 186.119 221.015 184.819 223.841C183.559 223.867 181.297 224.045 180.439 223.278C179.227 222.196 180.576 220.742 177.756 220.626C177.198 220.602 175.658 220.62 175.415 220.937C174.39 222.27 175.682 223.101 172.707 223.827C172.232 223.942 170.685 223.905 169.968 223.96C169.189 222.092 168.988 221.305 166.623 220.369L166.45 220.303C166.122 220.407 164.925 220.784 164.738 220.945C162.702 222.673 162.643 224.382 158.686 223.618C158.323 222.606 157.924 221.255 156.666 220.671C156.237 220.473 155.794 220.468 155.324 220.573C152.612 221.18 151.938 224.718 148.427 223.428C146.422 222.691 147.133 219.978 143.898 220.811C141.134 221.521 143.034 223.544 137.031 223.624C136.445 222.461 135.072 219.648 132.651 220.392C131.076 220.875 130.755 222.455 130.358 223.615L126.176 223.649L125.112 221.366C119.261 218.005 121.632 224.95 115.312 223.664C113.516 222.566 114.832 220.364 111.259 220.713C109.076 220.928 108.777 222.191 108.137 223.57C106.895 223.615 105.613 223.688 104.377 223.613C103.293 221.471 101.067 218.257 98.3887 221.451C96.3039 223.938 97.8724 223.59 93.4499 223.643C93.1106 222.772 92.7641 221.741 92.2267 220.948C88.9832 219.315 87.4865 221.727 86.0879 223.578C85.1918 223.628 83.4875 223.848 82.8108 223.388C81.8263 222.719 81.18 220.353 79.6427 220.323C77.7089 220.286 75.8952 222.571 75.0141 223.585C73.8088 223.643 72.717 223.665 71.5088 223.676C69.2867 219.407 66.9417 219.426 64.3506 223.564C57.2732 225.066 61.7375 220.046 56.3574 220.618C54.4063 220.826 53.8868 224.236 51.0141 223.96C47.3559 224.195 49.4633 220.531 46.4821 220.576C44.7538 220.602 43.5056 222.703 42.3052 223.485C41.2544 223.677 39.6598 224.087 38.8374 223.507C36.7161 222.014 37.591 218.566 33.1007 221.116C32.6096 221.992 32.018 223.407 30.7946 223.7C29.914 223.909 27.5247 224.224 27.4064 223.232C27.2664 222.056 26.2873 219.77 24.1778 220.215C22.283 220.614 21.5436 222.284 20.8422 223.611C19.3982 223.665 18.0646 223.715 16.6144 223.707C16.1307 220.736 14.7119 219.08 10.7696 220.643C9.89786 221.824 9.92829 222.255 9.80337 223.615C7.62319 223.595 5.4398 223.568 3.26047 223.613C2.30469 223.632 1.8055 223.719 1.00473 223.254C0.288313 222.362 0.628094 218.815 0.599525 217.395C1.67229 216.334 3.74901 215.662 3.61513 214.291C3.26824 212.66 0.153247 212.582 0.020885 210.716C-0.0267858 210.046 0.161021 208.814 0.764851 208.346C2.50179 206.998 5.3115 207.401 3.38844 204.826C2.50923 204.42 1.59808 203.984 0.696558 203.616C0.492351 202.58 -0.0289859 200.435 0.915301 199.722C3.15481 198.031 5.13045 199.104 3.64116 195.75C2.56197 195.324 1.8765 195.051 0.744061 194.743C0.409689 193.648 0.413406 192.601 0.404954 191.477C2.63872 189.733 5.26213 190.362 3.80463 187.282C2.72815 186.895 0.736452 186.571 0.362693 185.727C-1.66585 181.149 5.5321 183.178 4.3028 179.611C3.47346 177.204 1.14554 178.417 0.325673 177.499C0.307247 176.532 0.037958 174.25 0.693347 173.556C2.00446 173.174 3.24931 173.075 3.84097 171.95C4.77579 170.173 2.27646 169.624 0.672892 169.46C0.531401 168.203 0.0672018 166.054 1.19997 165.07C2.33038 164.09 4.15489 164.591 3.997 162.673C3.94696 161.284 0.935081 161.33 0.767219 160.226C0.674413 159.617 0.320264 156.91 0.949112 156.55C2.80117 155.491 6.14506 156.109 3.65485 153.163C3.11864 152.528 1.29447 152.601 0.26414 152.421C0.2376 151.396 -0.0531586 148.638 0.857489 148.084C2.64075 146.998 5.8947 147.612 3.51505 144.691C2.84005 144.414 1.01166 143.788 0.889608 143.284C0.618121 142.168 0.590735 140.671 1.03668 139.593C2.05467 138.556 4.51901 139.076 4.36332 137.273C4.18193 135.173 1.17394 135.924 0.785814 134.113C0.62539 133.365 0.852417 131.616 1.24545 130.85C2.26124 129.843 4.56465 130.581 4.33272 128.426C4.28759 128.006 4.22115 127.897 3.89084 127.555C2.55301 126.83 0.997966 127.615 0.719211 126.16C0.488971 124.959 0.729015 123.826 0.564027 122.619C2.15238 122.083 5.24929 121.453 4.24127 119.611C4.09369 119.348 3.81832 119.142 3.47549 119.037C2.84411 118.842 1.11156 118.812 0.934067 118.273C0.582283 117.018 0.517876 115.957 0.903299 114.662C1.28162 113.39 4.29655 113.312 4.54166 112.552C5.58484 109.316 0.276819 110.951 0.924262 107.747C1.01639 107.291 0.819285 106.523 1.04344 106.025C1.995 104.438 5.22849 105.161 4.20442 102.545C3.85737 101.658 1.51355 101.627 0.521934 101.572C0.591411 100.567 0.454317 97.5913 1.58455 97.0957C3.77471 96.1351 5.66903 95.733 4.24482 93.1728C4.08524 92.8859 3.22531 92.7224 2.89212 92.6197C0.346295 92.1682 0.902454 89.6212 1.03262 87.8773C4.46255 87.2439 5.23931 87.3872 4.40237 84.4757C3.67159 84.3134 1.46098 83.9224 0.985794 83.626C0.710927 83.1265 0.672891 80.4714 0.939138 79.9722C1.55937 78.8087 5.04254 78.5608 4.39882 77.1423C3.48631 75.1315 0.566223 76.7151 0.729183 71.7667C2.20123 71.0875 2.94655 71.1321 4.29739 70.6627C5.42121 68.8673 5.32772 67.8614 2.68977 67.0023C2.29556 66.8756 1.89864 66.7542 1.49919 66.6383C-0.496564 60.7362 5.97534 64.2178 4.38699 59.448L4.35301 59.348C3.02465 58.6967 1.53198 58.4299 1.30833 57.1846C1.1447 56.274 0.832638 55.2054 1.34011 54.3118C2.4286 53.1697 5.02835 53.9421 4.74536 51.6023C4.70953 51.3026 4.51817 51.0273 4.21591 50.8399C3.25151 50.2437 1.2517 50.2488 1.10599 49.0461C1.00557 48.2169 0.879297 46.7057 1.56156 46.0305C2.70363 44.9008 4.94788 45.6431 4.83022 43.5408C4.81061 43.1901 4.48469 42.0137 4.38969 41.61C3.00842 41.3506 2.53476 41.288 1.12965 41.2181C0.985794 40.3383 0.622684 38.0573 1.39877 37.5289C3.53973 36.0713 5.39754 37.3378 4.39442 33.9748C3.23376 33.4543 1.85874 33.1193 1.55412 32.2583C1.28991 31.6953 0.973623 29.3721 1.40942 28.9559C2.70752 27.7163 5.04745 28.8726 4.6938 26.3817C4.41961 24.4498 3.09531 24.7918 1.23581 24.2027C1.15619 23.1959 0.836191 21.2651 1.85706 20.5364C3.36325 19.4745 5.14127 20.3453 5.14532 18.2136C5.14904 16.1685 3.99396 16.2394 2.11045 15.3645C0.703996 14.7112 0.965846 13.2507 1.03262 12.215C2.26935 11.1607 3.32403 10.8781 4.3334 9.813C4.06935 9.17751 3.8239 8.54822 3.49865 7.92999C2.34458 7.26644 1.11207 7.00299 1.02281 6.10392C0.925444 5.11984 0.728 1.13165 1.3085 0.440625C2.96819 -0.213748 7.80238 0.0358216 9.67303 0.459563C10.7395 3.65415 11.4495 3.52091 15.4593 2.92032C16.3461 -0.44368 17.1242 0.072459 21.1656 0.312289C21.4065 1.2183 21.6376 2.12589 21.8588 3.03495C23.2281 3.0257 24.8967 3.04952 26.2413 2.98472C26.5787 2.08906 26.8818 1.19988 27.3746 0.348254C31.0605 0.164711 31.6058 -0.109687 32.3479 2.85425C33.2567 2.89627 36.843 3.18515 37.324 2.66011C38.5908 1.27701 36.845 0.222106 40.0596 0.198397C42.9942 0.176744 43.051 1.2316 43.6946 3.21618C44.372 3.2368 45.1993 3.26074 45.8792 3.26615C51.056 3.30725 46.1657 -0.373832 52.1185 0.172935C52.7133 0.227575 52.9889 0.0949683 53.5312 0.481546C54.7824 2.50588 54.037 2.63907 56.7469 3.46886C59.3467 2.63202 58.9337 1.81835 60.5048 0.317231C61.7709 0.235732 63.2134 0.0113748 64.2476 0.720677C65.5508 1.61451 65.2227 3.15604 67.4805 2.97568C69.7577 2.79376 69.7418 0.560343 72.16 0.407481C73.2023 0.341599 74.127 0.464822 75.1233 0.657313L76.3332 2.84298C81.7386 4.96368 80.1517 0.869994 84.5604 0.479819C88.6923 0.11413 86.1736 4.67169 90.6976 3.66308C93.0058 3.14851 92.1643 1.11039 93.5903 0.462713C94.1438 0.211338 96.6817 0.240583 97.4316 0.442589C97.9003 0.984954 97.9914 1.9224 98.1667 2.6381ZM13.7873 212.323C20.9019 212.582 29.3582 212.421 36.4951 212.322L66.2464 211.985L159.465 211.795L185.672 211.827C190.311 211.816 195 211.72 199.636 211.794C202.327 211.837 205.148 212.052 207.853 212.134C207.99 211.274 208.103 210.432 208.157 209.564C208.537 203.367 208.098 197.128 208.162 190.956L208.365 146.366C208.419 141.052 208.281 134.663 208.543 129.428C209.376 128.467 208.943 121.823 209.021 120.384C209.029 120.222 208.789 119.86 208.666 119.704C208.487 115.947 208.632 112.327 208.678 108.572L208.843 91.8801L209.078 40.1459C209.104 35.1621 209.474 30.086 209.41 25.0833C209.378 22.5727 209.222 20.031 209.114 17.5198C209.018 15.3198 209.241 12.6201 208.916 10.4759C206.855 10.2754 202.984 10.4219 200.775 10.4594L187.265 10.6713L144.222 11.0372L79.3686 11.5546L39.1865 11.4741C31.2057 11.5181 22.4018 11.7942 14.3255 11.9679C13.7917 17.2836 13.9763 22.4698 13.9078 27.8C13.8116 39.2604 13.8704 50.7212 14.0844 62.1805C14.2048 69.9507 13.9823 77.4369 13.9225 85.1612L13.95 111.809L13.8109 182.2C13.8221 186.918 13.8003 191.637 13.7455 196.353C13.6461 201.755 13.4341 206.898 13.7873 212.323Z" fill="var(--fill-0, white)"/>
</svg>
