<svg preserveAspectRatio="none" width="100%" height="100%" overflow="visible" style="display: block;" viewBox="0 0 300 299" fill="none" xmlns="http://www.w3.org/2000/svg">
<path id="Vector" d="M132.063 3.5214C139.93 6.5278 136.777 0.308486 142.228 0.0158867C148.904 -0.342505 144.031 5.49879 152.196 3.82098C154.036 2.34973 154.838 0.422427 157.766 0.313764C161.687 0.168265 160.803 2.13339 161.877 4.4008C164.351 5.3003 165.259 5.38705 167.603 4.16637C168.294 3.08001 169.249 1.01989 170.996 0.649832C178.887 -1.02159 173.25 5.73145 179.489 5.05135C182.482 4.72483 183.631 -1.37565 187.979 0.36784C190.319 1.23392 189.721 2.69863 191.74 4.24715C201.822 6.16813 193.948 -0.845956 204.241 0.568946C205.672 2.03587 204.987 4.07259 207.325 4.47206C208.039 4.59404 209.056 4.54442 209.665 4.16331C210.552 3.53081 211.175 2.60778 211.801 1.66075C212.81 -0.094588 217.993 -0.0823615 219.401 1.13223C220.238 1.85343 219.642 4.10449 221.614 4.48499C226.182 5.36691 227.158 -0.276854 231.413 0.0409194C233.655 0.208373 234.522 2.63894 235.231 3.90674C241.114 6.44922 241.076 2.78945 243.837 0.504051C252.665 -0.183689 247.596 4.71826 252.867 4.51611C258.007 4.31909 254.555 -0.446453 263.219 0.441232C263.892 2.09088 265.928 7.15593 268.786 4.34737C272.586 0.611534 271.872 -0.350579 278.902 0.435779C278.972 4.56818 281.269 5.97891 285.949 3.46384C286.964 0.26938 287.273 0.654459 291.591 0.58798C294.052 0.550106 296.556 0.533657 299.014 0.710206C299.278 3.31322 299.783 6.81569 298.823 9.26773C296.292 10.5341 293.634 11.6834 295.981 14.1981C296.872 15.1524 298.05 15.7088 299.014 16.5404C299.276 18.2596 299.453 18.7291 298.832 20.41C296.902 21.2113 292.024 22.8886 293.686 25.1578C294.573 26.3712 297.097 26.9048 298.751 27.4084C299.697 34.6137 296.467 30.825 293.197 35.113C296.083 40.4395 300.436 36.9133 298.421 44.1363C296.94 44.4884 295.89 44.6993 294.377 44.9507C293.845 46.9065 293.938 47.1422 294.514 49.1095C295.926 49.6318 298.384 50.3031 298.796 51.4374C299.103 52.2824 299.242 53.9883 298.819 54.8286C297.488 55.9285 293.55 56.2351 293.729 58.2477C293.9 60.1568 297.079 61.5178 298.844 62.232C298.98 63.8177 299.114 64.8926 298.896 66.4953C294.757 67.6866 292.815 67.785 294.507 71.663C297.052 72.9482 301.031 73.9408 298.748 77.1394C298.082 78.0711 296.317 78.4664 295.057 78.7754C292.804 83.0576 295.774 82.9316 298.803 85.2491C299.014 86.2935 299.597 88.2467 298.587 89.087C296.615 90.7278 293.875 89.1257 294.139 92.4314C294.389 95.548 298.805 94.9239 299.217 97.8415C299.303 98.4598 299.187 100.063 298.607 100.613C296.817 101.712 294.013 100.52 293.677 103.29C293.597 103.954 294.029 105.434 294.268 106.131C295.751 106.567 297.411 107.018 298.819 107.559C299.637 112.082 299.797 111.673 294.823 113.431C292.101 117.713 295.355 117.522 298.807 119.364C298.951 120.559 299.458 122.949 298.321 123.763C296.31 125.204 294.116 123.354 293.988 127.041C293.916 127.521 294.23 128.373 294.737 128.685C297.295 130.243 298.878 129.857 299.105 132.83C299.371 136.317 294.225 134.947 294.145 137.988C294.059 141.291 299.167 140.489 299.073 143.889C299.051 144.786 299.212 145.484 298.291 146.205C297.065 147.252 294.223 147.64 294.098 149.287C294.045 149.98 294.589 151.208 295.241 151.646C298.282 153.686 300.019 153.71 298.255 157.425C295.239 159.489 292.599 159.66 295.03 163.134C296.206 163.593 297.82 164.195 298.93 164.704C299.36 166.653 299.449 167.047 298.785 168.964C295.776 170.821 294.204 170.568 294.909 173.97C297.497 175.729 298.998 175.084 299.474 177.893C300.251 182.504 293.877 180.428 293.954 184.295C294.077 187.041 299.264 186.082 299.276 189.152C299.28 189.989 299.249 191.275 298.359 191.81C293.813 194.552 291.901 195.673 298.964 198.762C299.36 200.642 299.474 201.39 299.117 203.265C294.17 205.566 292.733 207.587 298.873 209.691C299.503 211.532 299.435 212.422 299.337 214.341C295.999 216.058 291.473 217.518 296.699 220.672C297.547 221.184 298.418 221.567 299.167 222.169C299.324 223.302 299.819 225.997 298.73 226.595C295.624 228.296 293.111 226.49 295.162 231.153C297.034 232.052 298.807 232.339 299.565 234.184C301.25 238.285 294.655 237.824 294.88 240.971C295.01 242.797 297.791 243.749 299.335 244.947C299.672 248.391 299.706 248.461 296.133 250.303C295.398 250.771 294.725 252.31 294.882 252.961C295.401 255.129 298.967 254.497 299.715 256.842C301.352 261.97 295.442 260.246 294.625 263.615C294.316 264.888 297.845 266.741 299.267 267.444C299.54 268.412 300.388 270.746 299.369 271.508C297.338 273.026 294.85 272.254 295.267 275.366C295.587 277.776 299.606 277.549 299.904 280.189C300.004 281.083 299.899 282.174 299.815 283.067C296.449 284.872 292.14 286.427 297.388 289.142C297.93 289.421 298.746 289.926 299.249 290.262C300.072 292.289 300.14 295.96 299.312 297.901C298.641 299.466 288.797 298.954 286.995 298.759C286.34 297.36 286.184 296.794 285.936 295.315C280.382 293.802 279.636 294.789 277.967 298.615C275.87 298.979 274.706 299.021 272.545 298.993C272.104 297.804 271.724 296.79 271.172 295.635C269.421 294.604 266.969 293.547 265.298 295.251C264.213 296.356 264.092 298.558 262.082 298.704C257.632 299.028 257.661 298.94 256.567 295.818C251.537 293.439 250.384 295.016 248.635 298.787C246.941 298.822 243.898 299.06 242.743 298.036C241.112 296.592 242.927 294.651 239.134 294.497C238.383 294.465 236.311 294.488 235.984 294.912C234.606 296.69 236.343 297.8 232.341 298.77C231.702 298.923 229.621 298.873 228.657 298.947C227.608 296.453 227.338 295.403 224.156 294.154L223.924 294.066C223.483 294.205 221.873 294.708 221.62 294.922C218.882 297.229 218.803 299.51 213.479 298.49C212.99 297.139 212.453 295.336 210.761 294.556C210.184 294.292 209.588 294.285 208.956 294.426C205.308 295.235 204.4 299.959 199.677 298.237C196.98 297.253 197.937 293.631 193.585 294.743C189.866 295.691 192.423 298.391 184.347 298.499C183.558 296.945 181.711 293.191 178.455 294.183C176.335 294.829 175.903 296.938 175.369 298.486L169.743 298.532L168.312 295.483C160.441 290.998 163.63 300.268 155.128 298.551C152.711 297.086 154.482 294.147 149.676 294.613C146.738 294.899 146.337 296.585 145.476 298.427C143.804 298.486 142.081 298.583 140.417 298.483C138.959 295.624 135.964 291.334 132.361 295.598C129.557 298.917 131.667 298.453 125.717 298.523C125.261 297.36 124.795 295.985 124.072 294.926C119.708 292.746 117.695 295.965 115.813 298.437C114.608 298.504 112.315 298.798 111.405 298.184C110.08 297.29 109.211 294.132 107.143 294.092C104.541 294.043 102.101 297.093 100.916 298.446C99.2944 298.523 97.8255 298.553 96.2002 298.567C93.2108 292.869 90.0561 292.894 86.5703 298.418C77.0491 300.423 83.0549 293.723 75.8172 294.486C73.1924 294.764 72.4935 299.315 68.6288 298.947C63.7075 299.26 66.5425 294.37 62.532 294.43C60.2069 294.465 58.5277 297.269 56.9128 298.312C55.4992 298.569 53.354 299.116 52.2476 298.342C49.3938 296.349 50.5709 291.747 44.5301 295.151C43.8694 296.319 43.0735 298.208 41.4277 298.599C40.2431 298.879 37.0288 299.299 36.8696 297.974C36.6813 296.405 35.3641 293.353 32.5262 293.948C29.9771 294.481 28.9824 296.71 28.0388 298.481C26.0962 298.553 24.3022 298.62 22.3512 298.609C21.7005 294.643 19.7918 292.433 14.4883 294.519C13.3155 296.096 13.3564 296.671 13.1884 298.486C10.2554 298.46 7.31812 298.423 4.38628 298.483C3.10047 298.509 2.42892 298.625 1.35165 298.004C0.387865 296.813 0.844969 292.079 0.806536 290.183C2.24971 288.767 5.04351 287.87 4.8634 286.04C4.39674 283.862 0.206162 283.759 0.0280964 281.268C-0.0360347 280.374 0.21662 278.729 1.02895 278.105C3.36564 276.305 7.14551 276.843 4.55843 273.406C3.37565 272.864 2.14988 272.282 0.937074 271.791C0.662356 270.409 -0.0389945 267.545 1.23135 266.593C4.24414 264.336 6.90195 265.768 4.89842 261.291C3.4466 260.723 2.52443 260.358 1.00098 259.947C0.551151 258.485 0.556152 257.088 0.544781 255.588C3.54985 253.26 7.0791 254.099 5.11833 249.988C3.67015 249.471 0.990742 249.038 0.487927 247.912C-2.24106 241.801 7.44228 244.51 5.78852 239.748C4.67282 236.536 1.54109 238.154 0.438125 236.93C0.413336 235.639 0.0510646 232.592 0.932753 231.667C2.69659 231.157 4.37127 231.025 5.16722 229.522C6.42483 227.151 3.0625 226.417 0.905236 226.199C0.714889 224.521 0.090406 221.652 1.61432 220.34C3.13504 219.031 5.58954 219.699 5.37713 217.14C5.30981 215.286 1.25796 215.347 1.03213 213.873C0.907282 213.06 0.430848 209.447 1.27683 208.967C3.76839 207.552 8.26689 208.377 4.91684 204.446C4.19548 203.598 1.74144 203.694 0.355346 203.455C0.319642 202.087 -0.0715138 198.405 1.15357 197.666C3.55258 196.216 7.93009 197.036 4.72877 193.136C3.8207 192.767 1.36098 191.931 1.19678 191.259C0.831553 189.769 0.79471 187.771 1.39463 186.332C2.76413 184.947 6.07939 185.642 5.86994 183.236C5.62592 180.431 1.57929 181.434 1.05715 179.017C0.841332 178.018 1.14675 175.684 1.67549 174.661C3.04203 173.317 6.14079 174.303 5.82877 171.426C5.76805 170.865 5.67868 170.719 5.23431 170.264C3.43455 169.296 1.34256 170.343 0.967548 168.401C0.657808 166.798 0.980738 165.286 0.758781 163.674C2.89557 162.959 7.06182 162.117 5.70574 159.659C5.50721 159.309 5.13675 159.033 4.67555 158.894C3.82616 158.633 1.49538 158.593 1.25659 157.873C0.783341 156.198 0.696694 154.782 1.2152 153.053C1.72416 151.355 5.78011 151.251 6.10986 150.237C7.51324 145.918 0.372402 148.1 1.2434 143.823C1.36734 143.215 1.10218 142.189 1.40373 141.525C2.68385 139.406 7.03385 140.372 5.65617 136.879C5.18928 135.695 2.03617 135.654 0.702153 135.581C0.79562 134.238 0.611189 130.267 2.13169 129.605C5.07808 128.323 7.62649 127.786 5.71052 124.369C5.49584 123.986 4.33898 123.768 3.89074 123.631C0.465867 123.028 1.21406 119.628 1.38917 117.3C6.00343 116.455 7.0484 116.646 5.92247 112.76C4.93935 112.543 1.96545 112.021 1.32618 111.626C0.956404 110.959 0.905235 107.415 1.26341 106.749C2.0978 105.196 6.78369 104.865 5.91769 102.971C4.69011 100.287 0.761735 102.401 0.980963 95.7957C2.9613 94.8891 3.96397 94.9487 5.78124 94.3221C7.2931 91.9256 7.16734 90.5829 3.61853 89.4361C3.08819 89.267 2.55422 89.105 2.01684 88.9502C-0.668023 81.072 8.03857 85.7193 5.90177 79.3524L5.85607 79.2189C4.06904 78.3495 2.06096 77.9935 1.76009 76.3313C1.53995 75.1157 1.12014 73.6894 1.80284 72.4965C3.26717 70.972 6.76459 72.0031 6.3839 68.8799C6.33568 68.4798 6.07825 68.1123 5.67163 67.8622C4.37423 67.0664 1.6839 67.0732 1.48787 65.4678C1.35279 64.361 1.18291 62.3437 2.10076 61.4425C3.63718 59.9346 6.65634 60.9253 6.49806 58.1191C6.47168 57.651 6.03322 56.0808 5.90541 55.542C4.0472 55.1956 3.40999 55.112 1.51971 55.0188C1.32618 53.8444 0.837691 50.7997 1.88175 50.0944C4.76197 48.1488 7.26126 49.8393 5.91178 45.3503C4.35035 44.6555 2.50055 44.2083 2.09075 43.059C1.7353 42.3075 1.30981 39.2065 1.89608 38.651C3.6424 36.9963 6.79029 38.5398 6.31453 35.2148C5.94567 32.6361 4.1641 33.0926 1.66253 32.3062C1.55542 30.9624 1.12492 28.3851 2.49828 27.4125C4.52455 25.9949 6.9165 27.1574 6.92196 24.312C6.92696 21.5821 5.37303 21.6767 2.83917 20.5088C0.94708 19.6368 1.29934 17.6873 1.38917 16.3048C3.05294 14.8975 4.47179 14.5203 5.82968 13.0986C5.47446 12.2503 5.14426 11.4103 4.70671 10.5851C3.15415 9.69939 1.49606 9.34774 1.37598 8.14765C1.24499 6.83407 0.979372 1.51055 1.76032 0.588156C3.99308 -0.285315 10.4965 0.0478154 13.013 0.613435C14.4478 4.87763 15.403 4.69978 20.7972 3.8981C21.9903 -0.592234 23.0371 0.0967198 28.4739 0.41685C28.7979 1.62621 29.1088 2.83769 29.4065 4.05111C31.2486 4.03877 33.4934 4.07057 35.3022 3.98407C35.7562 2.78852 36.1639 1.60162 36.8268 0.464857C41.7854 0.21986 42.519 -0.146413 43.5174 3.80992C44.74 3.866 49.5646 4.2516 50.2116 3.55078C51.9158 1.70458 49.5673 0.296471 53.8918 0.264824C57.8398 0.235921 57.9162 1.64396 58.782 4.29303C59.6932 4.32055 60.8062 4.35251 61.7208 4.35972C68.6852 4.41459 62.1063 -0.498999 70.1145 0.230837C70.9148 0.303772 71.2855 0.126766 72.015 0.642777C73.6984 3.3449 72.6955 3.52268 76.3411 4.63032C79.8386 3.51327 79.283 2.42717 81.3966 0.423447C83.0999 0.314661 85.0405 0.0151833 86.4318 0.961976C88.1849 2.15508 87.7435 4.21275 90.7809 3.97201C93.8444 3.72917 93.823 0.747958 97.0762 0.543914C98.4784 0.455974 99.7224 0.620454 101.063 0.877396L102.69 3.79488C109.962 6.62563 107.827 1.16129 113.758 0.640473C119.317 0.152344 115.929 6.23587 122.015 4.88956C125.12 4.2027 123.988 1.48217 125.906 0.617639C126.651 0.282099 130.065 0.321135 131.074 0.590777C131.704 1.31474 131.827 2.56606 132.063 3.5214ZM18.5479 283.414C28.1191 283.759 39.4953 283.544 49.0966 283.412L89.1207 282.962L214.527 282.708L249.783 282.751C256.024 282.737 262.332 282.608 268.568 282.707C272.188 282.765 275.984 283.052 279.623 283.161C279.807 282.014 279.959 280.89 280.032 279.73C280.544 271.459 279.952 263.131 280.039 254.893L280.312 195.372C280.384 188.279 280.198 179.751 280.55 172.763C281.672 171.481 281.089 162.612 281.194 160.691C281.205 160.475 280.882 159.992 280.716 159.783C280.475 154.769 280.671 149.937 280.732 144.924L280.955 122.644L281.271 53.5876C281.306 46.9352 281.804 40.1594 281.717 33.4817C281.674 30.1305 281.465 26.7378 281.319 23.3858C281.19 20.4492 281.49 16.8456 281.053 13.9835C278.281 13.7159 273.073 13.9113 270.101 13.9615L251.926 14.2443L194.021 14.7327L106.774 15.4233L52.7172 15.3158C41.9807 15.3746 30.137 15.7431 19.272 15.975C18.5538 23.0705 18.8021 29.9931 18.71 37.108C18.5806 52.4056 18.6598 67.7037 18.9477 82.9999C19.1096 93.3716 18.8103 103.364 18.7298 113.675L18.7669 149.245L18.5797 243.205C18.5947 249.503 18.5654 255.801 18.4917 262.097C18.358 269.307 18.0728 276.171 18.5479 283.414Z" fill="var(--fill-0, white)"/>
</svg>
