<svg preserveAspectRatio="none" width="100%" height="100%" overflow="visible" style="display: block;" viewBox="0 0 271 272" fill="none" xmlns="http://www.w3.org/2000/svg">
<path id="Vector" d="M119.297 3.20341C126.404 5.93834 123.556 0.28063 128.479 0.0144521C134.51 -0.311577 130.108 5.00224 137.483 3.47594C139.145 2.13755 139.871 0.384281 142.516 0.285431C146.057 0.15307 145.259 1.94075 146.229 4.0034C148.463 4.82168 149.284 4.90059 151.401 3.79015C152.026 2.80188 152.888 0.92779 154.467 0.591151C161.594 -0.92934 156.503 5.2139 162.139 4.59521C164.842 4.29818 165.88 -1.25143 169.808 0.334624C171.921 1.1225 171.381 2.45494 173.205 3.86363C182.312 5.61114 175.2 -0.769565 184.498 0.51757C185.79 1.85203 185.172 3.70483 187.284 4.06823C187.929 4.17919 188.847 4.13405 189.398 3.78736C190.199 3.21197 190.762 2.3723 191.327 1.51078C192.239 -0.0860466 196.92 -0.0749242 198.192 1.02999C198.948 1.68606 198.41 3.73385 200.191 4.07999C204.318 4.88227 205.199 -0.251853 209.043 0.0372243C211.069 0.189557 211.851 2.40064 212.492 3.55396C217.807 5.86685 217.772 2.53756 220.266 0.458535C228.241 -0.167101 223.661 4.29219 228.423 4.1083C233.066 3.92907 229.948 -0.406138 237.775 0.401388C238.383 1.90207 240.221 6.50974 242.804 3.9548C246.236 0.556312 245.591 -0.318922 251.941 0.396427C252.005 4.15567 254.08 5.43901 258.308 3.15105C259.224 0.245055 259.503 0.59536 263.404 0.534885C265.627 0.500431 267.889 0.485468 270.11 0.646073C270.348 3.01403 270.804 6.20023 269.937 8.43085C267.651 9.58287 265.249 10.6283 267.369 12.916C268.174 13.7841 269.239 14.2903 270.11 15.0468C270.346 16.6107 270.506 17.0379 269.945 18.5669C268.201 19.2959 263.795 20.8218 265.296 22.886C266.098 23.9899 268.378 24.4752 269.871 24.9334C270.726 31.4881 267.809 28.0415 264.855 31.9422C267.462 36.7878 271.394 33.58 269.573 40.1508C268.236 40.471 267.287 40.6629 265.921 40.8916C265.44 42.6708 265.524 42.8852 266.044 44.6748C267.32 45.15 269.541 45.7606 269.912 46.7925C270.19 47.5613 270.315 49.1131 269.933 49.8776C268.731 50.8781 265.173 51.157 265.335 52.9879C265.489 54.7245 268.361 55.9627 269.956 56.6124C270.079 58.0549 270.2 59.0327 270.003 60.4907C266.264 61.5745 264.51 61.6639 266.038 65.1918C268.337 66.3609 271.932 67.2638 269.869 70.1737C269.267 71.0212 267.673 71.3808 266.535 71.6619C264.499 75.5574 267.182 75.4428 269.919 77.551C270.11 78.5011 270.636 80.2779 269.723 81.0424C267.942 82.535 265.467 81.0776 265.705 84.0847C265.931 86.92 269.921 86.3522 270.292 89.0063C270.371 89.5688 270.266 91.027 269.742 91.5272C268.125 92.5271 265.592 91.4427 265.288 93.9627C265.216 94.567 265.607 95.9132 265.822 96.547C267.162 96.9436 268.661 97.3545 269.933 97.8463C270.672 101.961 270.816 101.589 266.323 103.188C263.864 107.083 266.804 106.91 269.923 108.585C270.052 109.672 270.51 111.847 269.483 112.587C267.667 113.898 265.685 112.215 265.57 115.569C265.504 116.006 265.787 116.781 266.245 117.065C268.557 118.482 269.986 118.131 270.192 120.836C270.432 124.007 265.783 122.762 265.711 125.527C265.633 128.533 270.247 127.803 270.163 130.896C270.142 131.712 270.288 132.346 269.456 133.002C268.349 133.955 265.781 134.308 265.668 135.807C265.621 136.436 266.112 137.553 266.701 137.952C269.448 139.808 271.018 139.83 269.423 143.21C266.699 145.087 264.314 145.243 266.51 148.402C267.573 148.82 269.031 149.368 270.034 149.831C270.422 151.604 270.502 151.962 269.902 153.706C267.184 155.396 265.765 155.165 266.402 158.26C268.739 159.861 270.095 159.273 270.525 161.829C271.227 166.023 265.469 164.135 265.539 167.653C265.65 170.151 270.336 169.278 270.346 172.071C270.35 172.833 270.321 174.003 269.518 174.489C265.411 176.984 263.684 178.003 270.064 180.813C270.422 182.524 270.525 183.204 270.202 184.91C265.734 187.003 264.436 188.842 269.982 190.756C270.551 192.43 270.49 193.24 270.401 194.986C267.386 196.548 263.297 197.876 268.018 200.745C268.785 201.211 269.571 201.56 270.247 202.107C270.389 203.138 270.837 205.589 269.853 206.133C267.047 207.681 264.777 206.037 266.63 210.28C268.32 211.097 269.923 211.358 270.607 213.037C272.129 216.767 266.171 216.348 266.375 219.211C266.492 220.872 269.004 221.738 270.399 222.828C270.703 225.961 270.734 226.025 267.507 227.701C266.843 228.126 266.235 229.526 266.377 230.119C266.845 232.09 270.066 231.516 270.742 233.649C272.221 238.314 266.882 236.745 266.145 239.81C265.865 240.969 269.054 242.654 270.338 243.294C270.584 244.174 271.35 246.298 270.43 246.991C268.596 248.372 266.348 247.669 266.724 250.5C267.014 252.692 270.644 252.486 270.913 254.888C271.003 255.701 270.909 256.693 270.833 257.506C267.792 259.148 263.899 260.563 268.641 263.032C269.13 263.286 269.867 263.746 270.321 264.051C271.065 265.895 271.126 269.235 270.379 271C269.773 272.424 260.88 271.958 259.253 271.781C258.661 270.509 258.519 269.993 258.295 268.647C253.279 267.271 252.605 268.169 251.097 271.65C249.203 271.981 248.151 272.019 246.199 271.994C245.801 270.912 245.458 269.99 244.959 268.939C243.377 268.001 241.162 267.039 239.652 268.59C238.672 269.595 238.564 271.598 236.747 271.731C232.727 272.026 232.754 271.946 231.766 269.105C227.222 266.941 226.18 268.375 224.6 271.806C223.07 271.838 220.321 272.054 219.278 271.123C217.805 269.809 219.444 268.044 216.017 267.903C215.339 267.874 213.468 267.895 213.172 268.281C211.927 269.899 213.497 270.909 209.881 271.79C209.304 271.93 207.424 271.885 206.553 271.952C205.606 269.683 205.362 268.727 202.488 267.591L202.278 267.511C201.88 267.638 200.425 268.095 200.197 268.291C197.724 270.388 197.652 272.464 192.843 271.536C192.401 270.307 191.916 268.667 190.388 267.958C189.866 267.718 189.328 267.711 188.757 267.839C185.461 268.575 184.642 272.872 180.375 271.305C177.939 270.411 178.803 267.116 174.871 268.127C171.513 268.99 173.822 271.446 166.527 271.544C165.814 270.131 164.146 266.716 161.204 267.618C159.289 268.206 158.899 270.124 158.417 271.533L153.335 271.574L152.042 268.801C144.931 264.72 147.813 273.154 140.133 271.592C137.949 270.259 139.549 267.585 135.208 268.009C132.554 268.27 132.191 269.803 131.413 271.478C129.903 271.533 128.346 271.621 126.844 271.53C125.527 268.929 122.821 265.026 119.567 268.905C117.033 271.925 118.939 271.502 113.565 271.566C113.152 270.509 112.731 269.257 112.078 268.294C108.137 266.311 106.318 269.239 104.618 271.488C103.529 271.549 101.458 271.816 100.636 271.257C99.4391 270.444 98.6538 267.572 96.7856 267.535C94.4354 267.49 92.2314 270.265 91.1607 271.496C89.6959 271.566 88.369 271.594 86.9008 271.606C84.2004 266.423 81.3507 266.445 78.2018 271.47C69.601 273.295 75.0263 267.199 68.4882 267.894C66.1171 268.146 65.4858 272.286 61.9947 271.952C57.5491 272.237 60.1101 267.788 56.4873 267.842C54.3869 267.874 52.87 270.425 51.4113 271.374C50.1343 271.608 48.1965 272.106 47.197 271.401C44.6191 269.588 45.6824 265.402 40.2255 268.499C39.6287 269.561 38.9097 271.28 37.423 271.635C36.3529 271.89 33.4493 272.272 33.3055 271.067C33.1354 269.64 31.9456 266.863 29.382 267.404C27.0793 267.889 26.1807 269.916 25.3284 271.528C23.5736 271.594 21.953 271.654 20.1906 271.645C19.6028 268.036 17.8786 266.026 13.0878 267.924C12.0283 269.358 12.0653 269.881 11.9135 271.533C9.26405 271.509 6.6107 271.475 3.96227 271.53C2.80076 271.554 2.19412 271.659 1.22099 271.094C0.350372 270.011 0.763289 265.704 0.728571 263.979C2.03224 262.691 4.55597 261.875 4.39327 260.211C3.97172 258.229 0.186233 258.135 0.0253804 255.869C-0.0325514 255.056 0.19568 253.56 0.929483 252.992C3.04029 251.355 6.45478 251.844 4.11778 248.717C3.04933 248.224 1.94206 247.695 0.84649 247.248C0.598328 245.99 -0.035225 243.385 1.11232 242.519C3.83388 240.466 6.23476 241.769 4.4249 237.696C3.11343 237.179 2.2804 236.848 0.904217 236.473C0.497873 235.144 0.50239 233.873 0.492119 232.508C3.20669 230.391 6.39479 231.154 4.62356 227.414C3.31537 226.944 0.894971 226.55 0.440761 225.526C-2.02442 219.966 6.72286 222.431 5.22896 218.099C4.22112 215.177 1.39212 216.649 0.395773 215.535C0.373381 214.36 0.0461283 211.589 0.842587 210.747C2.43592 210.283 3.94871 210.163 4.66773 208.796C5.80376 206.639 2.76646 205.972 0.81773 205.773C0.645783 204.247 0.0816668 201.637 1.45827 200.443C2.83199 199.252 5.04921 199.86 4.85734 197.532C4.79653 195.845 1.13635 195.901 0.93236 194.56C0.819578 193.821 0.389199 190.534 1.15341 190.097C3.40412 188.81 7.46776 189.561 4.44155 185.984C3.78992 185.213 1.5731 185.301 0.320996 185.083C0.288743 183.838 -0.0646008 180.489 1.04206 179.816C3.20916 178.498 7.16352 179.244 4.27165 175.696C3.45137 175.36 1.22941 174.599 1.08109 173.988C0.751169 172.633 0.717888 170.815 1.25982 169.506C2.49693 168.246 5.49171 168.878 5.30251 166.689C5.08208 164.138 1.42663 165.05 0.954958 162.852C0.760003 161.943 1.0359 159.819 1.51353 158.889C2.74797 157.667 5.54718 158.563 5.26533 155.946C5.21048 155.436 5.12974 155.303 4.72833 154.889C3.10254 154.008 1.21278 154.961 0.874018 153.194C0.59422 151.736 0.885934 150.361 0.685432 148.894C2.61567 148.243 6.37918 147.478 5.15419 145.242C4.97485 144.923 4.6402 144.672 4.22358 144.545C3.45629 144.308 1.35082 144.272 1.13512 143.617C0.707618 142.093 0.629347 140.805 1.09773 139.232C1.55749 137.688 5.22137 137.593 5.51924 136.67C6.78696 132.741 0.336403 134.726 1.12321 130.836C1.23517 130.282 0.995634 129.349 1.26804 128.745C2.42441 126.818 6.35391 127.696 5.1094 124.519C4.68765 123.442 1.83934 123.404 0.634278 123.337C0.71871 122.117 0.552107 118.504 1.92562 117.902C4.5872 116.735 6.88927 116.247 5.1585 113.138C4.96458 112.79 3.91954 112.591 3.51464 112.467C0.420833 111.919 1.0967 108.826 1.25489 106.708C5.4231 105.939 6.36706 106.113 5.34996 102.578C4.46188 102.381 1.77545 101.906 1.19798 101.546C0.863951 100.939 0.817729 97.7153 1.14128 97.1091C1.89501 95.6963 6.12794 95.3953 5.34565 93.6727C4.23673 91.2312 0.688101 93.1541 0.886137 87.1453C2.67504 86.3205 3.58079 86.3747 5.22239 85.8047C6.5881 83.6246 6.4745 82.4031 3.26874 81.3599C2.78967 81.2061 2.30732 81.0587 1.82188 80.9179C-0.603447 73.7511 7.26151 77.9788 5.33127 72.1868L5.28998 72.0654C3.6757 71.2745 1.86173 70.9506 1.58995 69.4385C1.39109 68.3327 1.01186 67.0352 1.62857 65.95C2.95134 64.5632 6.11068 65.5011 5.76679 62.6599C5.72324 62.296 5.49069 61.9617 5.12337 61.7342C3.95139 61.0102 1.52113 61.0164 1.34405 59.556C1.22202 58.5491 1.06856 56.714 1.89769 55.8942C3.28558 54.5224 6.01289 55.4237 5.86991 52.8709C5.84608 52.4451 5.45001 51.0167 5.33456 50.5265C3.65597 50.2114 3.08035 50.1354 1.37281 50.0506C1.19798 48.9822 0.756715 46.2124 1.69985 45.5708C4.30164 43.8009 6.55934 45.3388 5.34031 41.2552C3.92982 40.623 2.25883 40.2162 1.88864 39.1708C1.56755 38.4871 1.18319 35.6661 1.71279 35.1607C3.29031 33.6555 6.13389 35.0596 5.70413 32.0349C5.37092 29.689 3.76157 30.1043 1.50182 29.389C1.40506 28.1665 1.01618 25.8219 2.25678 24.9371C4.08718 23.6476 6.24791 24.705 6.25284 22.1166C6.25736 19.6332 4.85364 19.7193 2.56472 18.6569C0.855529 17.8636 1.17374 16.0902 1.25489 14.8325C2.75783 13.5522 4.03951 13.2091 5.26615 11.9158C4.94526 11.1441 4.64698 10.38 4.25173 9.62928C2.84924 8.82353 1.35144 8.50363 1.24297 7.41191C1.12464 6.21695 0.884699 1.37415 1.59015 0.535045C3.60708 -0.259551 9.48181 0.0434977 11.7551 0.558041C13.0512 4.43718 13.914 4.27539 18.7868 3.5461C19.8645 -0.538754 20.8101 0.0879859 25.7214 0.379208C26.0141 1.47936 26.295 2.58144 26.5639 3.68529C28.2279 3.67406 30.2557 3.70299 31.8897 3.62431C32.2997 2.53671 32.6681 1.45699 33.2669 0.42288C37.7461 0.200007 38.4089 -0.133192 39.3107 3.46588C40.4151 3.5169 44.7734 3.86768 45.3578 3.23014C46.8973 1.55066 44.7758 0.2697 48.6823 0.24091C52.2486 0.214617 52.3176 1.49551 53.0997 3.90537C53.9229 3.9304 54.9282 3.95947 55.7545 3.96604C62.0456 4.01595 56.1027 -0.453939 63.3368 0.209993C64.0597 0.276341 64.3945 0.115319 65.0536 0.584734C66.5742 3.04285 65.6682 3.20458 68.9615 4.21219C72.1208 3.19602 71.619 2.208 73.5282 0.385209C75.0669 0.286247 76.8199 0.0138122 78.0767 0.875108C79.6604 1.96048 79.2616 3.83233 82.0054 3.61333C84.7728 3.39242 84.7535 0.680416 87.6922 0.494798C88.9588 0.414799 90.0825 0.564427 91.2934 0.798166L92.7636 3.4522C99.3325 6.02733 97.4041 1.05642 102.762 0.582638C107.783 0.138587 104.722 5.67277 110.22 4.44803C113.025 3.82319 112.002 1.34833 113.735 0.561866C114.408 0.256625 117.492 0.292136 118.403 0.53743C118.973 1.19602 119.084 2.33434 119.297 3.20341ZM16.7549 257.821C25.4009 258.135 35.6774 257.94 44.3506 257.82L80.5057 257.41L193.79 257.18L225.638 257.218C231.275 257.205 236.973 257.088 242.606 257.178C245.877 257.231 249.306 257.492 252.592 257.591C252.759 256.548 252.896 255.525 252.962 254.47C253.424 246.946 252.89 239.37 252.968 231.876L253.215 177.73C253.281 171.277 253.112 163.519 253.431 157.163C254.443 155.996 253.917 147.928 254.012 146.181C254.022 145.984 253.731 145.545 253.581 145.354C253.363 140.793 253.539 136.398 253.595 131.837L253.796 111.569L254.082 48.7486C254.113 42.6969 254.563 36.533 254.484 30.4583C254.445 27.4097 254.256 24.3234 254.125 21.274C254.008 18.6026 254.279 15.3244 253.885 12.7207C251.38 12.4773 246.676 12.6551 243.991 12.7007L227.573 12.9581L175.266 13.4023L96.4524 14.0306L47.6212 13.9328C37.9226 13.9862 27.2237 14.3215 17.409 14.5324C16.7603 20.9872 16.9846 27.2847 16.9014 33.7571C16.7845 47.6733 16.856 61.59 17.1161 75.5049C17.2623 84.9401 16.992 94.0306 16.9193 103.41L16.9527 135.768L16.7837 221.243C16.7972 226.972 16.7707 232.701 16.7042 238.429C16.5834 244.989 16.3258 251.233 16.7549 257.821Z" fill="var(--fill-0, white)"/>
</svg>
