<svg preserveAspectRatio="none" width="100%" height="100%" overflow="visible" style="display: block;" viewBox="0 0 274 275" fill="none" xmlns="http://www.w3.org/2000/svg">
<path id="Vector" d="M120.617 3.23874C127.803 6.00383 124.923 0.283725 129.901 0.0146115C135.999 -0.315013 131.548 5.05742 139.005 3.51428C140.686 2.16113 141.419 0.38852 144.093 0.288579C147.674 0.154759 146.867 1.96215 147.848 4.04756C150.107 4.87486 150.937 4.95464 153.077 3.83195C153.709 2.83278 154.581 0.938023 156.176 0.597671C163.383 -0.93959 158.235 5.2714 163.934 4.64589C166.667 4.34558 167.716 -1.26523 171.687 0.338315C173.825 1.13488 173.278 2.48201 175.123 3.90625C184.33 5.67303 177.14 -0.778053 186.54 0.523278C187.847 1.87245 187.222 3.7457 189.357 4.1131C190.009 4.22529 190.938 4.17965 191.494 3.82913C192.304 3.2474 192.873 2.39846 193.445 1.52744C194.367 -0.0869956 199.1 -0.0757506 200.386 1.04135C201.15 1.70466 200.606 3.77503 202.407 4.12499C206.58 4.93612 207.471 -0.254631 211.357 0.0376349C213.405 0.191647 214.196 2.42712 214.844 3.59316C220.218 5.93156 220.183 2.56555 222.704 0.463592C230.767 -0.168944 226.137 4.33953 230.952 4.15361C235.646 3.9724 232.493 -0.410618 240.407 0.405815C241.022 1.92305 242.881 6.58154 245.491 3.99842C248.962 0.562448 248.31 -0.322439 254.73 0.4008C254.795 4.2015 256.892 5.499 261.167 3.18581C262.093 0.247758 262.376 0.601927 266.32 0.540785C268.568 0.50595 270.854 0.490822 273.1 0.653199C273.341 3.04728 273.802 6.26861 272.925 8.52384C270.614 9.68856 268.185 10.7456 270.329 13.0584C271.143 13.9362 272.219 14.4479 273.1 15.2127C273.339 16.7939 273.501 17.2258 272.934 18.7717C271.17 19.5087 266.715 21.0514 268.233 23.1384C269.043 24.2545 271.349 24.7452 272.859 25.2084C273.723 31.8354 270.773 28.3508 267.787 32.2945C270.422 37.1935 274.398 33.9503 272.558 40.5936C271.205 40.9174 270.246 41.1114 268.865 41.3426C268.379 43.1414 268.464 43.3582 268.989 45.1676C270.279 45.6479 272.524 46.2653 272.9 47.3086C273.181 48.0859 273.307 49.6548 272.921 50.4277C271.706 51.4392 268.109 51.7212 268.273 53.5723C268.428 55.3281 271.332 56.5799 272.944 57.2368C273.069 58.6952 273.191 59.6838 272.992 61.1579C269.212 62.2536 267.438 62.344 268.983 65.9108C271.307 67.0929 274.942 68.0057 272.857 70.9476C272.248 71.8045 270.636 72.168 269.486 72.4523C267.427 76.3907 270.14 76.2749 272.907 78.4064C273.1 79.3669 273.631 81.1634 272.709 81.9362C270.908 83.4453 268.406 81.9718 268.647 85.0121C268.875 87.8786 272.909 87.3046 273.285 89.988C273.364 90.5567 273.258 92.0309 272.728 92.5367C271.093 93.5476 268.532 92.4513 268.225 94.9991C268.152 95.61 268.547 96.971 268.765 97.6119C270.119 98.0128 271.635 98.4283 272.921 98.9255C273.669 103.086 273.814 102.709 269.272 104.326C266.785 108.264 269.758 108.089 272.911 109.783C273.042 110.882 273.505 113.08 272.466 113.829C270.63 115.154 268.626 113.452 268.509 116.843C268.443 117.285 268.73 118.069 269.193 118.356C271.529 119.789 272.975 119.434 273.183 122.168C273.426 125.375 268.725 124.115 268.653 126.912C268.574 129.95 273.239 129.212 273.154 132.34C273.133 133.164 273.28 133.806 272.439 134.469C271.32 135.433 268.723 135.789 268.609 137.304C268.561 137.941 269.058 139.071 269.654 139.473C272.431 141.35 274.018 141.372 272.406 144.789C269.652 146.687 267.24 146.845 269.461 150.039C270.535 150.461 272.009 151.015 273.023 151.484C273.415 153.276 273.496 153.638 272.89 155.401C270.142 157.11 268.707 156.877 269.351 160.006C271.714 161.624 273.085 161.03 273.519 163.614C274.23 167.855 268.408 165.945 268.478 169.502C268.59 172.027 273.328 171.146 273.339 173.969C273.343 174.739 273.314 175.922 272.502 176.414C268.35 178.936 266.603 179.967 273.054 182.808C273.415 184.537 273.519 185.225 273.193 186.95C268.676 189.066 267.363 190.925 272.971 192.86C273.546 194.552 273.484 195.371 273.395 197.136C270.346 198.715 266.212 200.058 270.985 202.959C271.76 203.43 272.556 203.783 273.239 204.336C273.382 205.378 273.835 207.857 272.84 208.407C270.003 209.971 267.708 208.31 269.581 212.599C271.291 213.426 272.911 213.689 273.602 215.387C275.141 219.158 269.118 218.734 269.324 221.629C269.442 223.308 271.982 224.183 273.393 225.285C273.7 228.453 273.731 228.518 270.468 230.212C269.797 230.642 269.182 232.058 269.326 232.657C269.799 234.65 273.056 234.069 273.739 236.226C275.235 240.942 269.837 239.357 269.091 242.455C268.809 243.626 272.032 245.33 273.33 245.977C273.58 246.867 274.354 249.014 273.424 249.715C271.569 251.111 269.297 250.401 269.677 253.263C269.97 255.479 273.64 255.271 273.912 257.699C274.003 258.521 273.908 259.524 273.831 260.346C270.757 262.006 266.821 263.436 271.615 265.933C272.109 266.19 272.855 266.655 273.314 266.964C274.066 268.827 274.128 272.204 273.372 273.989C272.759 275.429 263.768 274.958 262.123 274.778C261.524 273.492 261.381 272.971 261.155 271.61C256.082 270.219 255.401 271.127 253.877 274.646C251.962 274.981 250.898 275.019 248.925 274.993C248.522 273.9 248.175 272.968 247.67 271.905C246.071 270.957 243.832 269.984 242.305 271.552C241.315 272.568 241.204 274.594 239.368 274.728C235.304 275.026 235.331 274.945 234.331 272.073C229.737 269.886 228.684 271.335 227.087 274.804C225.539 274.837 222.76 275.055 221.705 274.113C220.216 272.785 221.873 271 218.409 270.858C217.723 270.829 215.831 270.85 215.532 271.24C214.273 272.876 215.86 273.897 212.205 274.788C211.621 274.929 209.72 274.883 208.84 274.951C207.882 272.657 207.635 271.691 204.729 270.543L204.517 270.462C204.114 270.589 202.644 271.052 202.413 271.25C199.912 273.371 199.84 275.469 194.977 274.531C194.531 273.288 194.041 271.63 192.495 270.913C191.968 270.67 191.424 270.664 190.846 270.793C187.515 271.538 186.686 275.882 182.372 274.298C179.908 273.393 180.783 270.062 176.807 271.085C173.411 271.957 175.746 274.44 168.37 274.539C167.65 273.11 165.963 269.658 162.989 270.57C161.053 271.164 160.658 273.104 160.171 274.528L155.032 274.57L153.725 271.766C146.536 267.64 149.449 276.167 141.684 274.587C139.477 273.24 141.094 270.536 136.704 270.965C134.021 271.229 133.655 272.779 132.868 274.473C131.341 274.528 129.767 274.617 128.248 274.524C126.916 271.895 124.181 267.949 120.89 271.871C118.329 274.924 120.256 274.497 114.822 274.562C114.405 273.492 113.979 272.227 113.319 271.253C109.334 269.248 107.495 272.209 105.776 274.482C104.675 274.544 102.581 274.814 101.75 274.249C100.54 273.427 99.7459 270.523 97.857 270.486C95.4809 270.441 93.2524 273.246 92.1698 274.49C90.6889 274.562 89.3473 274.589 87.8628 274.602C85.1325 269.361 82.2512 269.384 79.0675 274.464C70.3715 276.309 75.8568 270.146 69.2464 270.848C66.849 271.104 66.2107 275.29 62.681 274.951C58.1862 275.239 60.7755 270.742 57.1126 270.797C54.989 270.829 53.4553 273.408 51.9804 274.367C50.6893 274.604 48.73 275.107 47.7195 274.395C45.113 272.562 46.1881 268.329 40.6708 271.46C40.0674 272.534 39.3404 274.272 37.8373 274.631C36.7553 274.888 33.8196 275.275 33.6742 274.057C33.5022 272.614 32.2992 269.806 29.7072 270.353C27.3791 270.843 26.4706 272.893 25.6088 274.523C23.8346 274.589 22.196 274.651 20.4141 274.641C19.8198 270.992 18.0765 268.96 13.2326 270.879C12.1615 272.329 12.1989 272.858 12.0454 274.528C9.36661 274.503 6.68388 274.469 4.00613 274.524C2.83177 274.549 2.21841 274.655 1.23451 274.084C0.35425 272.989 0.771739 268.635 0.736636 266.891C2.05474 265.588 4.60641 264.763 4.4419 263.081C4.01569 261.078 0.188295 260.982 0.0256613 258.691C-0.0329117 257.869 0.197847 256.356 0.939772 255.782C3.07395 254.127 6.52623 254.622 4.16337 251.46C3.08309 250.962 1.96356 250.427 0.855861 249.975C0.604952 248.703 -0.035615 246.069 1.12463 245.194C3.87632 243.118 6.30378 244.435 4.47389 240.318C3.14789 239.795 2.30565 239.46 0.914227 239.082C0.503385 237.737 0.507952 236.452 0.497567 235.072C3.24219 232.932 6.46558 233.703 4.67474 229.922C3.35207 229.447 0.904878 229.049 0.44564 228.013C-2.04683 222.392 6.79729 224.884 5.28685 220.504C4.26784 217.55 1.40753 219.038 0.400154 217.912C0.377514 216.725 0.046639 213.922 0.851915 213.071C2.46288 212.602 3.99243 212.481 4.7194 211.099C5.86801 208.918 2.79708 208.243 0.826782 208.043C0.652932 206.499 0.0825708 203.86 1.47441 202.653C2.86334 201.45 5.10511 202.065 4.91111 199.71C4.84963 198.005 1.14893 198.062 0.942682 196.706C0.828651 195.958 0.393508 192.635 1.16617 192.193C3.4418 190.893 7.55043 191.651 4.49071 188.035C3.83187 187.255 1.59052 187.344 0.324549 187.124C0.291939 185.866 -0.065316 182.479 1.0536 181.8C3.24469 180.467 7.24282 181.22 4.31894 177.633C3.48957 177.294 1.24302 176.525 1.09306 175.907C0.759485 174.537 0.725835 172.699 1.27376 171.375C2.52457 170.102 5.55251 170.741 5.36121 168.528C5.13834 165.949 1.44242 166.871 0.965529 164.648C0.768416 163.729 1.04736 161.582 1.53028 160.642C2.77839 159.406 5.60859 160.312 5.32361 157.666C5.26816 157.15 5.18653 157.016 4.78067 156.597C3.13689 155.707 1.2262 156.67 0.883694 154.884C0.600798 153.409 0.895741 152.019 0.69302 150.536C2.64462 149.878 6.4498 149.105 5.21124 146.844C5.02992 146.521 4.69156 146.268 4.27034 146.14C3.49456 145.9 1.36578 145.863 1.14769 145.201C0.715451 143.661 0.636314 142.358 1.10988 140.768C1.57473 139.206 5.27917 139.11 5.58034 138.177C6.86209 134.206 0.340127 136.212 1.13564 132.279C1.24884 131.719 1.00666 130.776 1.28207 130.165C2.45125 128.217 6.42425 129.104 5.16596 125.892C4.73954 124.803 1.8597 124.765 0.641299 124.698C0.726667 123.463 0.558219 119.811 1.94694 119.202C4.63798 118.023 6.96553 117.529 5.21561 114.386C5.01953 114.034 3.96293 113.833 3.55354 113.707C0.425492 113.153 1.10884 110.026 1.26878 107.885C5.48313 107.107 6.43754 107.283 5.40919 103.709C4.51128 103.51 1.79511 103.03 1.21125 102.666C0.873515 102.053 0.826781 98.793 1.15392 98.1801C1.91599 96.7518 6.19577 96.4474 5.40483 94.7059C4.28363 92.2374 0.695718 94.1815 0.895946 88.1064C2.70465 87.2726 3.62043 87.3274 5.2802 86.7511C6.66103 84.547 6.54617 83.312 3.30492 82.2572C2.82055 82.1018 2.33286 81.9527 1.84205 81.8104C-0.610127 74.5645 7.34189 78.8388 5.39029 72.983L5.34854 72.8602C3.71639 72.0606 1.88234 71.7331 1.60755 70.2043C1.40649 69.0863 1.02306 67.7745 1.6466 66.6774C2.98401 65.2753 6.17833 66.2235 5.83063 63.351C5.78659 62.9831 5.55147 62.6451 5.18009 62.4151C3.99513 61.6831 1.53797 61.6894 1.35892 60.2129C1.23555 59.1949 1.08039 57.3396 1.91869 56.5107C3.32195 55.1238 6.07945 56.035 5.93489 53.4541C5.9108 53.0235 5.51034 51.5793 5.39361 51.0838C3.69645 50.7652 3.11445 50.6883 1.388 50.6026C1.21124 49.5224 0.765091 46.7221 1.71867 46.0735C4.34926 44.284 6.63195 45.8389 5.39943 41.7102C3.97332 41.0711 2.28384 40.6598 1.90955 39.6028C1.58491 38.9116 1.19629 36.0595 1.73176 35.5485C3.32673 34.0267 6.20179 35.4463 5.76727 32.3882C5.43037 30.0165 3.80321 30.4363 1.51844 29.7131C1.42061 28.4771 1.02743 26.1067 2.28176 25.2121C4.13242 23.9084 6.31707 24.9775 6.32206 22.3605C6.32663 19.8498 4.90737 19.9368 2.59311 18.8627C0.864999 18.0606 1.18673 16.2676 1.26878 14.9961C2.78835 13.7017 4.08423 13.3548 5.32444 12.0472C5.00001 11.267 4.69842 10.4945 4.29879 9.73548C2.88079 8.92085 1.3664 8.59742 1.25673 7.49366C1.13709 6.28552 0.894493 1.3893 1.60776 0.540946C3.64701 -0.262413 9.58678 0.0439774 11.8853 0.564196C13.1957 4.48612 14.068 4.32254 18.9948 3.58521C20.0844 -0.544696 21.0405 0.0889563 26.0061 0.38339C26.3021 1.49568 26.5861 2.60991 26.8579 3.72594C28.5404 3.71458 30.5906 3.74384 32.2427 3.66428C32.6573 2.56469 33.0297 1.47306 33.6352 0.427544C38.164 0.202213 38.8341 -0.134661 39.7459 3.5041C40.8625 3.55568 45.269 3.91034 45.8599 3.26576C47.4165 1.56776 45.2715 0.272674 49.2212 0.243567C52.827 0.216984 52.8968 1.51201 53.6875 3.94844C54.5198 3.97375 55.5363 4.00314 56.3717 4.00978C62.7325 4.06024 56.7238 -0.458945 64.0379 0.212309C64.7688 0.279389 65.1074 0.116591 65.7737 0.591183C67.3112 3.07642 66.3952 3.23993 69.7249 4.25865C72.9192 3.23127 72.4118 2.23235 74.3422 0.389458C75.8979 0.289404 77.6703 0.0139646 78.941 0.88476C80.5422 1.9821 80.1391 3.8746 82.9132 3.65318C85.7112 3.42984 85.6917 0.687921 88.6629 0.500255C89.9436 0.419374 91.0798 0.570652 92.304 0.806969L93.7905 3.49027C100.432 6.09381 98.4824 1.06807 103.899 0.589064C108.976 0.140116 105.882 5.73533 111.44 4.49709C114.276 3.86536 113.242 1.3632 114.994 0.568063C115.674 0.259456 118.793 0.295358 119.714 0.543357C120.29 1.20921 120.402 2.36009 120.617 3.23874ZM16.9404 260.665C25.6821 260.982 36.0724 260.785 44.8415 260.663L81.3969 260.249L195.935 260.016L228.136 260.055C233.835 260.042 239.597 259.924 245.292 260.015C248.599 260.068 252.065 260.332 255.389 260.432C255.557 259.377 255.696 258.343 255.763 257.277C256.23 249.669 255.69 242.01 255.769 234.433L256.018 179.69C256.084 173.166 255.914 165.323 256.236 158.896C257.26 157.717 256.728 149.56 256.824 147.793C256.834 147.594 256.539 147.15 256.388 146.958C256.168 142.346 256.346 137.902 256.402 133.291L256.606 112.799L256.895 49.2862C256.926 43.1678 257.381 36.9359 257.302 30.7942C257.262 27.712 257.071 24.5916 256.938 21.5086C256.82 18.8078 257.094 15.4934 256.695 12.861C254.163 12.6149 249.407 12.7947 246.692 12.8408L230.092 13.101L177.206 13.5501L97.5201 14.1853L48.1484 14.0865C38.3424 14.1405 27.5251 14.4795 17.6017 14.6927C16.9458 21.2187 17.1726 27.5857 17.0885 34.1294C16.9703 48.1991 17.0426 62.2693 17.3055 76.3377C17.4534 85.8769 17.1801 95.0677 17.1066 104.551L17.1404 137.266L16.9695 223.684C16.9832 229.476 16.9564 235.268 16.8891 241.059C16.767 247.691 16.5065 254.004 16.9404 260.665Z" fill="var(--fill-0, white)"/>
</svg>
