<svg preserveAspectRatio="none" width="100%" height="100%" overflow="visible" style="display: block;" viewBox="0 0 222.88 224" fill="none" xmlns="http://www.w3.org/2000/svg">
<path id="Vector" d="M98.1139 2.6381C103.959 4.8904 101.617 0.231107 105.666 0.0119018C110.626 -0.256592 107.005 4.11949 113.071 2.86254C114.438 1.76034 115.035 0.316467 117.21 0.235061C120.123 0.126058 119.466 1.59826 120.264 3.29692C122.102 3.9708 122.777 4.03578 124.518 3.1213C125.031 2.30743 125.741 0.764062 127.039 0.48683C132.901 -0.765338 128.713 4.2938 133.349 3.78429C135.572 3.53967 136.425 -1.03059 139.656 0.275573C141.394 0.92441 140.95 2.02171 142.45 3.18181C149.94 4.62094 144.091 -0.63376 151.738 0.426234C152.8 1.5252 152.292 3.05104 154.029 3.35031C154.559 3.44169 155.314 3.40451 155.767 3.119C156.426 2.64516 156.889 1.95366 157.354 1.24417C158.104 -0.0708619 161.954 -0.0617023 163 0.848223C163.622 1.38852 163.179 3.07493 164.644 3.35999C168.038 4.02069 168.763 -0.207409 171.924 0.0306553C173.59 0.156105 174.234 1.977 174.761 2.92679C179.132 4.83153 179.103 2.08976 181.154 0.377617C187.713 -0.137613 183.947 3.53475 187.863 3.38331C191.682 3.2357 189.117 -0.334467 195.554 0.330555C196.054 1.56641 197.567 5.36096 199.69 3.25689C202.514 0.458139 201.983 -0.262641 207.205 0.32647C207.258 3.42232 208.964 4.47919 212.441 2.59498C213.195 0.20181 213.425 0.490297 216.633 0.440494C218.461 0.412119 220.321 0.399797 222.148 0.532061C222.344 2.48215 222.719 5.10607 222.006 6.94305C220.125 7.89178 218.15 8.75276 219.894 10.6367C220.556 11.3516 221.431 11.7685 222.148 12.3915C222.342 13.6794 222.474 14.0312 222.013 15.2904C220.578 15.8907 216.954 17.1473 218.189 18.8473C218.848 19.7564 220.723 20.1561 221.952 20.5334C222.655 25.9313 220.255 23.093 217.826 26.3054C219.97 30.2958 223.204 27.6541 221.707 33.0654C220.607 33.3291 219.826 33.4871 218.703 33.6754C218.307 35.1406 218.377 35.3172 218.804 36.791C219.853 37.1823 221.68 37.6852 221.986 38.535C222.214 39.1681 222.317 40.4461 222.002 41.0756C221.014 41.8996 218.088 42.1293 218.221 43.6371C218.348 45.0673 220.71 46.0869 222.021 46.622C222.122 47.8099 222.222 48.6152 222.06 49.8159C218.985 50.7084 217.542 50.782 218.799 53.6873C220.69 54.6502 223.646 55.3937 221.95 57.7901C221.455 58.488 220.144 58.7842 219.208 59.0157C217.534 62.2237 219.74 62.1294 221.991 63.8655C222.148 64.648 222.58 66.1112 221.83 66.7408C220.365 67.97 218.329 66.7698 218.525 69.2462C218.711 71.5811 221.992 71.1136 222.298 73.2993C222.362 73.7625 222.276 74.9634 221.845 75.3754C220.516 76.1988 218.432 75.3058 218.182 77.3811C218.123 77.8787 218.444 78.9873 218.622 79.5093C219.723 79.8359 220.957 80.1743 222.002 80.5793C222.611 83.9679 222.729 83.6612 219.034 84.9782C217.011 88.1863 219.429 88.0432 221.994 89.4229C222.1 90.3184 222.477 92.1092 221.632 92.7187C220.139 93.7982 218.508 92.412 218.414 95.1743C218.36 95.5341 218.593 96.1727 218.97 96.4061C220.87 97.5735 222.046 97.2845 222.215 99.5118C222.413 102.124 218.59 101.098 218.53 103.375C218.466 105.85 222.261 105.249 222.192 107.797C222.175 108.468 222.295 108.991 221.61 109.531C220.7 110.316 218.588 110.607 218.495 111.841C218.456 112.359 218.86 113.279 219.345 113.607C221.604 115.136 222.894 115.154 221.583 117.937C219.343 119.483 217.382 119.612 219.188 122.214C220.061 122.558 221.261 123.009 222.085 123.39C222.405 124.85 222.47 125.145 221.977 126.581C219.742 127.973 218.574 127.783 219.098 130.332C221.021 131.65 222.136 131.166 222.489 133.271C223.067 136.725 218.331 135.17 218.388 138.067C218.48 140.124 222.334 139.406 222.342 141.706C222.345 142.333 222.322 143.296 221.661 143.697C218.284 145.751 216.863 146.591 222.111 148.905C222.405 150.314 222.489 150.874 222.224 152.279C218.549 154.003 217.481 155.517 222.043 157.093C222.511 158.472 222.46 159.139 222.388 160.576C219.907 161.863 216.545 162.957 220.428 165.32C221.058 165.703 221.705 165.99 222.261 166.441C222.377 167.29 222.746 169.309 221.937 169.757C219.629 171.031 217.762 169.678 219.286 173.172C220.676 173.845 221.994 174.06 222.557 175.442C223.809 178.514 218.909 178.169 219.076 180.527C219.172 181.895 221.239 182.608 222.386 183.505C222.636 186.086 222.661 186.138 220.007 187.518C219.461 187.869 218.961 189.022 219.078 189.509C219.463 191.133 222.112 190.66 222.668 192.417C223.885 196.258 219.493 194.967 218.887 197.491C218.657 198.445 221.279 199.832 222.335 200.36C222.538 201.084 223.168 202.833 222.411 203.404C220.903 204.541 219.054 203.963 219.363 206.294C219.602 208.1 222.587 207.93 222.808 209.908C222.883 210.577 222.805 211.394 222.742 212.064C220.242 213.416 217.04 214.581 220.94 216.615C221.342 216.824 221.948 217.202 222.322 217.454C222.933 218.972 222.984 221.723 222.369 223.176C221.871 224.349 214.557 223.966 213.218 223.819C212.732 222.772 212.615 222.347 212.431 221.239C208.305 220.106 207.751 220.845 206.511 223.711C204.953 223.984 204.088 224.016 202.483 223.995C202.155 223.104 201.873 222.345 201.463 221.479C200.162 220.707 198.34 219.915 197.099 221.192C196.293 222.019 196.203 223.669 194.71 223.779C191.403 224.021 191.425 223.955 190.612 221.616C186.875 219.834 186.019 221.015 184.719 223.841C183.461 223.867 181.2 224.045 180.342 223.278C179.13 222.196 180.478 220.742 177.66 220.626C177.103 220.602 175.564 220.62 175.32 220.937C174.296 222.27 175.587 223.101 172.614 223.827C172.139 223.942 170.593 223.905 169.877 223.96C169.098 222.092 168.897 221.305 166.533 220.369L166.361 220.303C166.033 220.407 164.837 220.784 164.649 220.945C162.615 222.673 162.556 224.382 158.601 223.618C158.237 222.606 157.839 221.255 156.582 220.671C156.152 220.473 155.71 220.468 155.24 220.573C152.53 221.18 151.856 224.718 148.347 223.428C146.343 222.691 147.054 219.978 143.82 220.811C141.058 221.521 142.957 223.544 136.958 223.624C136.371 222.461 134.999 219.648 132.58 220.392C131.005 220.875 130.684 222.455 130.288 223.615L126.108 223.649L125.045 221.366C119.197 218.005 121.566 224.95 115.25 223.664C113.454 222.566 114.77 220.364 111.2 220.713C109.017 220.928 108.719 222.191 108.079 223.57C106.837 223.615 105.557 223.688 104.321 223.613C103.237 221.471 101.012 218.257 98.3357 221.451C96.252 223.938 97.8198 223.59 93.3996 223.643C93.0605 222.772 92.7141 221.741 92.177 220.948C88.9353 219.315 87.4394 221.727 86.0416 223.578C85.146 223.628 83.4426 223.848 82.7663 223.388C81.7823 222.719 81.1364 220.353 79.5999 220.323C77.6671 220.286 75.8543 222.571 74.9738 223.585C73.7691 223.643 72.6778 223.665 71.4703 223.676C69.2494 219.407 66.9057 219.426 64.3159 223.564C57.2423 225.066 61.7042 220.046 56.3271 220.618C54.377 220.826 53.8578 224.236 50.9866 223.96C47.3305 224.195 49.4366 220.531 46.4571 220.576C44.7297 220.602 43.4822 222.703 42.2824 223.485C41.2322 223.677 39.6385 224.087 38.8165 223.507C36.6963 222.014 37.5708 218.566 33.0829 221.116C32.5921 221.992 32.0007 223.407 30.778 223.7C29.8979 223.909 27.5099 224.224 27.3917 223.232C27.2518 222.056 26.2732 219.77 24.1648 220.215C22.271 220.614 21.532 222.284 20.831 223.611C19.3878 223.665 18.0549 223.715 16.6054 223.707C16.1221 220.736 14.704 219.08 10.7638 220.643C9.89254 221.824 9.92295 222.255 9.79809 223.615C7.61909 223.595 5.43687 223.568 3.25871 223.613C2.30344 223.632 1.80452 223.719 1.00419 223.254C0.288158 222.362 0.627756 218.815 0.599203 217.395C1.67139 216.334 3.74699 215.662 3.61318 214.291C3.26649 212.66 0.153165 212.582 0.0208737 210.716C-0.0267714 210.046 0.160934 208.814 0.764439 208.346C2.50045 206.998 5.30864 207.401 3.38661 204.826C2.50788 204.42 1.59722 203.984 0.696183 203.616C0.492086 202.58 -0.0289703 200.435 0.914809 199.722C3.15312 198.031 5.12769 199.104 3.6392 195.75C2.56059 195.324 1.87549 195.051 0.74366 194.743C0.409469 193.648 0.413184 192.601 0.404736 191.477C2.6373 189.733 5.2593 190.362 3.80258 187.282C2.72668 186.895 0.736055 186.571 0.362497 185.727C-1.66495 181.149 5.52912 183.178 4.30049 179.611C3.4716 177.204 1.14493 178.417 0.325497 177.499C0.307081 176.532 0.0379376 174.25 0.692974 173.556C2.00338 173.174 3.24756 173.075 3.8389 171.95C4.77322 170.173 2.27523 169.624 0.67253 169.46C0.531115 168.203 0.0671656 166.054 1.19933 165.07C2.32913 164.09 4.15265 164.591 3.99485 162.673C3.94484 161.284 0.934578 161.33 0.766806 160.226C0.67405 159.617 0.320091 156.91 0.948602 156.55C2.79967 155.491 6.14175 156.109 3.65288 153.163C3.11696 152.528 1.29378 152.601 0.263998 152.421C0.237472 151.396 -0.05313 148.638 0.857027 148.084C2.63933 146.998 5.89153 147.612 3.51316 144.691C2.83853 144.414 1.01111 143.788 0.889129 143.284C0.617788 142.168 0.590417 140.671 1.03612 139.593C2.05356 138.556 4.51658 139.076 4.36097 137.273C4.17968 135.173 1.17331 135.924 0.785391 134.113C0.625053 133.365 0.851958 131.616 1.24478 130.85C2.26002 129.843 4.5622 130.581 4.33039 128.426C4.28528 128.006 4.21888 127.897 3.88874 127.555C2.55164 126.83 0.997429 127.615 0.718824 126.16C0.488708 124.959 0.728623 123.826 0.563724 122.619C2.15122 122.083 5.24646 121.453 4.23899 119.611C4.09149 119.348 3.81626 119.142 3.47362 119.037C2.84258 118.842 1.11097 118.812 0.933564 118.273C0.58197 117.018 0.517597 115.957 0.902813 114.662C1.28093 113.39 4.29424 113.312 4.53922 112.552C5.58184 109.316 0.27667 110.951 0.923765 107.747C1.01584 107.291 0.818844 106.523 1.04288 106.025C1.99392 104.438 5.22568 105.161 4.20215 102.545C3.85529 101.658 1.51274 101.627 0.521653 101.572C0.591093 100.567 0.454073 97.5913 1.5837 97.0957C3.77267 96.1351 5.66598 95.733 4.24254 93.1728C4.08304 92.8859 3.22357 92.7224 2.89056 92.6197C0.346108 92.1682 0.901968 89.6212 1.03206 87.8773C4.46015 87.2439 5.23649 87.3872 4.4 84.4757C3.66961 84.3134 1.46019 83.9224 0.985264 83.626C0.710544 83.1265 0.672529 80.4714 0.938632 79.9722C1.55853 78.8087 5.03983 78.5608 4.39645 77.1423C3.48444 75.1315 0.565918 76.7151 0.72879 71.7667C2.20004 71.0875 2.94496 71.1321 4.29508 70.6627C5.41829 68.8673 5.32486 67.8614 2.68832 67.0023C2.29432 66.8756 1.89762 66.7542 1.49838 66.6383C-0.496296 60.7362 5.97212 64.2178 4.38462 59.448L4.35067 59.348C3.02302 58.6967 1.53116 58.4299 1.30763 57.1846C1.14408 56.274 0.83219 55.2054 1.33939 54.3118C2.42729 53.1697 5.02564 53.9421 4.74281 51.6023C4.70699 51.3026 4.51573 51.0273 4.21364 50.8399C3.24976 50.2437 1.25103 50.2488 1.10539 49.0461C1.00503 48.2169 0.878824 46.7057 1.56072 46.0305C2.70218 44.9008 4.94521 45.6431 4.82762 43.5408C4.80802 43.1901 4.48228 42.0137 4.38733 41.61C3.0068 41.3506 2.53339 41.288 1.12904 41.2181C0.985264 40.3383 0.622349 38.0573 1.39802 37.5289C3.53783 36.0713 5.39464 37.3378 4.39206 33.9748C3.23202 33.4543 1.85774 33.1193 1.55329 32.2583C1.28921 31.6953 0.973099 29.3721 1.40866 28.9559C2.70606 27.7163 5.04473 28.8726 4.69128 26.3817C4.41723 24.4498 3.09365 24.7918 1.23515 24.2027C1.15557 23.1959 0.835741 21.2651 1.85606 20.5364C3.36144 19.4745 5.1385 20.3453 5.14256 18.2136C5.14627 16.1685 3.99181 16.2394 2.10932 15.3645C0.703617 14.7112 0.965326 13.2507 1.03206 12.215C2.26813 11.1607 3.32224 10.8781 4.33107 9.813C4.06716 9.17751 3.82184 8.54822 3.49677 7.92999C2.34332 7.26644 1.11147 7.00299 1.02226 6.10392C0.924946 5.11984 0.727608 1.13165 1.3078 0.440625C2.96659 -0.213748 7.79818 0.0358216 9.66783 0.459563C10.7338 3.65415 11.4434 3.52091 15.451 2.92032C16.3373 -0.44368 17.115 0.072459 21.1542 0.312289C21.395 1.2183 21.6259 2.12589 21.8471 3.03495C23.2156 3.0257 24.8833 3.04952 26.2272 2.98472C26.5644 2.08906 26.8674 1.19988 27.3599 0.348254C31.0438 0.164711 31.5888 -0.109687 32.3305 2.85425C33.2388 2.89627 36.8232 3.18515 37.3039 2.66011C38.57 1.27701 36.8252 0.222106 40.0381 0.198397C42.9711 0.176744 43.0279 1.2316 43.6711 3.21618C44.3481 3.2368 45.1749 3.26074 45.8545 3.26615C51.0285 3.30725 46.1409 -0.373832 52.0904 0.172935C52.685 0.227575 52.9604 0.0949683 53.5024 0.481546C54.753 2.50588 54.0079 2.63907 56.7164 3.46886C59.3147 2.63202 58.902 1.81835 60.4722 0.317231C61.7377 0.235732 63.1794 0.0113748 64.2131 0.720677C65.5155 1.61451 65.1876 3.15604 67.4441 2.97568C69.7201 2.79376 69.7042 0.560343 72.1211 0.407481C73.1629 0.341599 74.0871 0.464822 75.0829 0.657313L76.2921 2.84298C81.6946 4.96368 80.1086 0.869994 84.5149 0.479819C88.6445 0.11413 86.1273 4.67169 90.6488 3.66308C92.9557 3.14851 92.1147 1.11039 93.54 0.462713C94.0931 0.211338 96.6296 0.240583 97.3791 0.442589C97.8476 0.984954 97.9387 1.9224 98.1139 2.6381ZM13.7798 212.323C20.8906 212.582 29.3424 212.421 36.4755 212.322L66.2108 211.985L159.379 211.795L185.572 211.827C190.209 211.816 194.895 211.72 199.528 211.794C202.218 211.837 205.038 212.052 207.741 212.134C207.878 211.274 207.991 210.432 208.045 209.564C208.425 203.367 207.986 197.128 208.05 190.956L208.253 146.366C208.307 141.052 208.168 134.663 208.43 129.428C209.263 128.467 208.831 121.823 208.908 120.384C208.917 120.222 208.677 119.86 208.554 119.704C208.375 115.947 208.52 112.327 208.565 108.572L208.731 91.8801L208.966 40.1459C208.991 35.1621 209.361 30.086 209.297 25.0833C209.265 22.5727 209.109 20.031 209.001 17.5198C208.905 15.3198 209.128 12.6201 208.804 10.4759C206.744 10.2754 202.875 10.4219 200.667 10.4594L187.164 10.6713L144.145 11.0372L79.3258 11.5546L39.1654 11.4741C31.1889 11.5181 22.3898 11.7942 14.3178 11.9679C13.7842 17.2836 13.9687 22.4698 13.9003 27.8C13.8042 39.2604 13.863 50.7212 14.0769 62.1805C14.1972 69.9507 13.9748 77.4369 13.915 85.1612L13.9425 111.809L13.8035 182.2C13.8146 186.918 13.7928 191.637 13.7381 196.353C13.6388 201.755 13.4269 206.898 13.7798 212.323Z" fill="var(--fill-0, white)"/>
</svg>
