<svg preserveAspectRatio="none" width="100%" height="100%" overflow="visible" style="display: block;" viewBox="0 0 23.7734 24" fill="none" xmlns="http://www.w3.org/2000/svg">
<g id="Icon" clip-path="url(#clip0_0_10)">
<path id="Path 5943" d="M23.3916 11.9979C23.402 15.062 22.1975 18.0052 20.042 20.183C17.8866 22.3608 14.9558 23.5955 11.8918 23.6167C10.3715 23.6122 8.86702 23.3075 7.46477 22.7201C6.06251 22.1327 4.79005 21.2741 3.72048 20.1936C2.65092 19.1131 1.80533 17.832 1.23217 16.4239C0.659001 15.0157 0.369583 13.5082 0.380542 11.9879C0.367764 8.92393 1.57232 5.98032 3.72938 3.80423C5.88644 1.62813 8.81938 0.397709 11.8834 0.383574C14.9474 0.40475 17.8783 1.63857 20.035 3.81512C22.1917 5.99167 23.3985 8.93383 23.3916 11.9979ZM15.1912 13.4759L15.6574 10.4748H12.8731C12.8731 9.69115 12.8609 8.96324 12.8776 8.23606C12.8735 8.02283 12.9333 7.8133 13.0493 7.63434C13.1653 7.45538 13.3322 7.31515 13.5285 7.23186C13.8546 7.10137 14.1986 7.02119 14.5487 6.99388C14.9302 6.9542 15.3247 6.98466 15.7612 6.98466C15.7612 6.23916 15.7498 5.53949 15.7665 4.8413C15.7734 4.56355 15.6673 4.49949 15.414 4.49415C14.7562 4.48143 14.0988 4.45314 13.4415 4.40939C12.6362 4.3065 11.8219 4.51311 11.163 4.98745C10.5041 5.46178 10.0498 6.16847 9.89184 6.96482C9.78235 7.46241 9.72455 7.96997 9.71939 8.47945C9.69115 9.13795 9.71254 9.79953 9.71254 10.5053H7.09531V13.4896H9.73313V20.75H12.8761V13.4759H15.1912Z" fill="var(--fill-0, #F8FF98)"/>
</g>
<defs>
<clipPath id="clip0_0_10">
<rect width="23.7734" height="24" fill="white"/>
</clipPath>
</defs>
</svg>
