<svg preserveAspectRatio="none" width="100%" height="100%" overflow="visible" style="display: block;" viewBox="0 0 23.7734 24" fill="none" xmlns="http://www.w3.org/2000/svg">
<g id="Icon" clip-path="url(#clip0_0_6)">
<path id="Path 5945" d="M23.3927 11.9821C23.404 13.5027 23.1148 15.0105 22.5419 16.4191C21.969 17.8277 21.1235 19.1093 20.0541 20.1903C18.9846 21.2713 17.7121 22.1305 16.3098 22.7186C14.9075 23.3066 13.4029 23.6119 11.8823 23.617C8.81793 23.5978 5.88624 22.3641 3.73029 20.1864C1.57434 18.0087 0.370097 15.0648 0.381675 12.0004C0.371102 8.93593 1.57569 5.99223 3.7315 3.81425C5.88731 1.63626 8.81858 0.401643 11.883 0.380859C14.9475 0.393585 17.8815 1.62288 20.0399 3.79841C22.1983 5.97394 23.4043 8.91762 23.3927 11.9821ZM11.8868 4.58959C10.7734 4.58959 9.65917 4.58959 8.54575 4.58959C8.0166 4.58651 7.49212 4.68888 7.00298 4.89077C6.51384 5.09266 6.06985 5.39 5.69692 5.76542C5.32399 6.14084 5.02967 6.58678 4.83103 7.07725C4.63239 7.56772 4.53341 8.09285 4.54001 8.62198C4.53696 10.8605 4.53696 13.0968 4.54001 15.3308C4.52523 15.8605 4.61677 16.388 4.80914 16.8818C5.00151 17.3757 5.29088 17.8259 5.66013 18.2061C6.02937 18.5863 6.47099 18.8888 6.95901 19.0955C7.44703 19.3022 7.97151 19.4091 8.5015 19.4098C10.7665 19.4378 13.0318 19.4378 15.2973 19.4098C15.8211 19.4079 16.3393 19.3024 16.8221 19.0992C17.3049 18.8961 17.7427 18.5993 18.1103 18.2262C18.4778 17.853 18.7679 17.4108 18.9637 16.925C19.1595 16.4391 19.2572 15.9194 19.2511 15.3957C19.2751 13.1215 19.2751 10.8471 19.2511 8.57242C19.2517 8.04585 19.1477 7.52441 18.9452 7.03831C18.7428 6.55221 18.4459 6.11116 18.0718 5.74064C17.6976 5.37011 17.2537 5.07748 16.7656 4.87978C16.2776 4.68207 15.7552 4.58319 15.2286 4.58885C14.1137 4.58808 13.0002 4.59032 11.8868 4.59108V4.58959Z" fill="var(--fill-0, #F8FF98)"/>
<path id="Path 5946" d="M17.9549 11.9971C17.9549 13.1044 17.9595 14.2101 17.9549 15.3182C17.97 15.6898 17.9089 16.0606 17.7752 16.4077C17.6416 16.7548 17.4382 17.0708 17.1777 17.3363C16.9173 17.6018 16.6052 17.811 16.2607 17.9513C15.9162 18.0916 15.5467 18.1598 15.1749 18.1518C12.9974 18.1604 10.8198 18.1604 8.64233 18.1518C8.26705 18.1638 7.89335 18.0982 7.54457 17.9591C7.19579 17.8201 6.87943 17.6106 6.61533 17.3437C6.35123 17.0768 6.14508 16.7583 6.00972 16.4081C5.87435 16.0578 5.81268 15.6835 5.82862 15.3083C5.81641 13.1069 5.81641 10.9055 5.82862 8.70408C5.81114 8.32887 5.8713 7.95414 6.00534 7.60325C6.13938 7.25236 6.3445 6.93287 6.60769 6.66488C6.87088 6.39689 7.18657 6.18612 7.53497 6.04576C7.88338 5.9054 8.25699 5.8385 8.63245 5.8492C10.8099 5.83953 12.9877 5.83953 15.1657 5.8492C15.541 5.83988 15.9141 5.90815 16.2617 6.04976C16.6094 6.19138 16.924 6.40326 17.1859 6.67215C17.4479 6.94103 17.6514 7.26115 17.7839 7.61238C17.9164 7.9636 17.9748 8.33842 17.9557 8.71331C17.958 9.80841 17.9549 10.9027 17.9549 11.9971ZM11.9093 16.0775C12.9811 16.0633 14.0042 15.6278 14.7573 14.8652C15.5105 14.1026 15.9333 13.0742 15.9342 12.0024C15.9264 10.9311 15.5004 9.90514 14.7472 9.14332C13.9939 8.38149 12.9729 7.94404 11.9017 7.92417C10.8301 7.93806 9.80753 8.37563 9.05762 9.14127C8.30771 9.90691 7.89151 10.9383 7.89987 12.01C7.89453 12.5408 7.99414 13.0674 8.19303 13.5595C8.39193 14.0516 8.68612 14.4996 9.05874 14.8776C9.43136 15.2556 9.87503 15.5563 10.3642 15.7622C10.8535 15.9681 11.3786 16.0753 11.9093 16.0775ZM15.8182 8.87204C16.0494 8.87327 16.2716 8.78304 16.4366 8.62108C16.6015 8.45912 16.6958 8.23852 16.6988 8.00736C16.6942 7.78304 16.6042 7.5689 16.4473 7.40855C16.2903 7.24821 16.0782 7.15373 15.8541 7.14426C15.7394 7.14148 15.6254 7.16185 15.5188 7.20416C15.4122 7.24648 15.3153 7.30982 15.2338 7.39048C15.1523 7.47113 15.0879 7.56746 15.0444 7.67358C15.001 7.77971 14.9794 7.89345 14.981 8.00811C14.9785 8.23324 15.065 8.45029 15.2216 8.61204C15.3782 8.77379 15.5931 8.86723 15.8182 8.87204Z" fill="var(--fill-0, #F8FF98)"/>
<path id="Path 5947" d="M14.522 12.0094C14.5228 12.7082 14.2469 13.379 13.7547 13.8751C13.2625 14.3711 12.594 14.6521 11.8952 14.6567C11.1964 14.6529 10.5275 14.3729 10.0345 13.8776C9.54152 13.3823 9.26451 12.712 9.26392 12.0132C9.26895 11.3146 9.55 10.6464 10.0458 10.1542C10.5416 9.66198 11.2119 9.38572 11.9105 9.38574C12.6026 9.39412 13.2638 9.67368 13.7521 10.1643C14.2404 10.6548 14.5168 11.3173 14.522 12.0094Z" fill="var(--fill-0, #F8FF98)"/>
</g>
<defs>
<clipPath id="clip0_0_6">
<rect width="23.7734" height="24" fill="white"/>
</clipPath>
</defs>
</svg>
