<svg preserveAspectRatio="none" width="100%" height="100%" overflow="visible" style="display: block;" viewBox="0 0 22.9026 22.9026" fill="none" xmlns="http://www.w3.org/2000/svg">
<g id="Icon" clip-path="url(#clip0_0_4)">
<path id="Vector" d="M11.4509 0C17.7753 0 22.9022 5.12692 22.9022 11.4513C22.9022 17.7757 17.7753 22.9026 11.4509 22.9026C5.12657 22.9026 -0.000347524 17.7757 -0.000347524 11.4513C-0.000347524 5.12692 5.12657 0 11.4509 0ZM16.2849 5.68092C13.0934 5.23167 9.80936 5.23169 6.61695 5.68092C5.29969 5.86644 4.2737 6.88393 4.0665 8.21348C3.90103 9.28081 3.81675 10.3707 3.81675 11.4505C3.81676 12.5302 3.90061 13.6308 4.07098 14.7048C4.27414 16.0042 5.32089 17.037 6.61695 17.2201C8.21267 17.4457 9.84036 17.5586 11.4509 17.5586C13.0615 17.5586 14.6891 17.4456 16.2849 17.2201C17.5998 17.0346 18.6227 16.0252 18.8309 14.7048C19.0005 13.6316 19.0851 12.5369 19.0851 11.4505C19.0851 10.3641 19.0013 9.26959 18.8309 8.19561C18.6276 6.89626 17.5809 5.86405 16.2849 5.68092ZM9.39177 8.51991C9.52194 8.44357 9.68065 8.4435 9.81081 8.51991L14.1811 11.0823C14.3113 11.1571 14.3913 11.2998 14.3913 11.4513C14.3912 11.6026 14.3112 11.7448 14.1811 11.8196L9.81081 14.3812C9.74615 14.4195 9.67493 14.4386 9.60126 14.4386C9.52766 14.4386 9.45643 14.4194 9.39177 14.3812C9.26161 14.3064 9.1816 14.1659 9.18153 14.0129V8.88895C9.18153 8.73581 9.26153 8.59473 9.39177 8.51991Z" fill="var(--fill-0, #F8FF98)"/>
</g>
<defs>
<clipPath id="clip0_0_4">
<rect width="22.9026" height="22.9026" fill="white"/>
</clipPath>
</defs>
</svg>
