<svg preserveAspectRatio="none" width="100%" height="100%" overflow="visible" style="display: block;" viewBox="0 0 357 418" fill="none" xmlns="http://www.w3.org/2000/svg">
<path id="Vector" d="M163.766 5.1031C164.903 2.71687 166.24 0.214888 169.726 0.00866288C173.382 -0.207615 174.259 3.68107 176.417 5.48568C178.301 6.15175 179.623 5.5437 181.547 4.97615C182.688 3.33985 184.155 1.3968 186.233 0.588851C190.765 -1.17325 191.888 6.2428 194.835 6.77904C199.601 8.01093 199.797 2.2151 202.62 1.3003C209.618 -0.966737 208.115 5.55863 211.398 6.70493C216.145 8.3622 216.657 2.03328 219.903 0.864006C224.982 -0.96473 226.236 4.9974 230.013 6.42346C233.364 7.64443 235.6 3.52367 236.437 1.28507C240.189 -0.105364 242.684 0.0738647 244.459 3.47427C244.759 4.41464 245.129 5.29008 246.12 5.79818C246.831 6.16409 247.684 6.26951 248.467 6.0337C250.078 5.54916 251.044 4.14407 251.733 2.83492C252.251 1.85578 252.696 1.44161 253.817 1.05702C255.507 0.476261 257.942 0.503544 259.587 1.21068C262.562 2.48968 261.261 7.71078 266.415 6.13422C270.407 4.91239 270.859 -1.19537 276.636 1.01767C279.829 2.24094 278.698 8.35703 284.923 6.33528C288.58 5.14791 288.915 -0.960134 294.41 1.0553C297.903 2.33573 296.624 8.13099 302.524 6.05352C306.279 4.73173 306.304 -0.941751 311.655 0.902494C314.949 2.03874 314.017 8.36191 319.601 6.30311C323.89 4.72081 319.386 -0.177743 331.037 0.89273C333.529 11.5458 338.614 5.74906 342.381 1.57258C343.386 0.462187 352.984 0.897037 355.223 1.17421C355.589 3.67102 356.704 10.8334 355.021 13.0071C354.089 14.2112 350.754 14.6667 350.782 17.0469C350.833 21.4175 358.88 22.8798 355.002 28.3321C353.363 30.1534 348.878 30.5428 348.976 33.3924C348.998 34.0383 349.314 35.5887 350.04 35.9679C353.653 37.8572 357.63 40.1013 354.894 44.428C353.881 46.0286 348.638 47.1244 349.026 49.8194C349.178 51.3118 351.408 52.93 352.693 53.7247C353.42 54.1691 354.165 54.5855 354.926 54.9739C355.555 57.5318 355.608 58.808 355.283 61.4449C350.05 63.1059 348.088 62.9876 350.369 68.4641C351.266 69.0236 352.902 70.1532 353.944 70.2279C356.287 72.0466 355.772 73.6131 355.46 76.1805C352.343 80.0594 348.398 76.0619 350.776 84.7739C356.928 87.7024 354.544 87.2354 355.772 92.3881C351.367 95.815 348.17 92.5165 349.696 100.106C350.902 100.759 352.699 101.793 353.903 102.31C354.863 103.19 355.997 104.914 355.892 106.17C355.64 109.131 350.501 109.791 349.936 112.642C349.75 113.593 350.021 115.007 350.732 115.777C354.831 119.636 355.883 118.838 355.453 124.681C350.82 126.306 348.104 126.512 350.185 131.539C351.72 132.488 353.145 133.385 354.632 134.393C355.482 136.614 356.316 138.786 354.642 140.905C349.026 141.75 347.877 143.373 350.331 148.152C353.053 149.348 358.043 151.882 355.934 155.067C352.895 159.649 349.197 156.685 350.047 163.383C350.637 165.011 353.009 165.944 354.727 166.861C355.716 169.313 355.64 170.354 355.466 172.969C353.353 173.546 351.547 173.76 350.283 175.621C348.433 178.344 352.283 181.497 354.806 182.617C355.599 184.897 355.877 185.964 355.166 188.409C350.615 190.604 349.036 190.571 350.713 195.373C352.412 196.731 354.37 198.025 355.198 199.921C356.821 207.524 350.343 203.827 349.923 209.408C349.743 211.795 354.124 213.335 355.242 215.743C356.685 222.232 349.506 220.878 349.765 225.897C349.857 227.665 353.508 229.487 355.359 230.371C355.874 232.886 355.754 233.909 355.457 236.369C352.144 238.277 347.39 240.853 352.409 244.09C356.998 246.896 357.661 252.112 351.9 254.074C349.118 255.019 349.383 259.272 351.269 260.215C355.981 262.564 356.335 262.9 355.397 268.056C348.354 272.324 348.587 273.656 355.349 278.197C356.18 281.446 356.42 284.042 352.608 286.001C347.245 288.753 353.018 291.975 355.728 293.88C356 295.436 356.136 296.657 355.911 298.263C355.441 301.646 350.58 301.592 350.091 304.458C349.589 307.393 353.113 308.189 354.749 310.125C356.489 312.187 356.05 314.356 355.747 316.763C354.152 317.389 352.033 318.044 350.353 318.641C350.498 323.205 350.779 322.777 354.866 325.44C356.031 326.198 356.211 327.795 356.303 328.918C356.553 332.063 353.786 332.571 351.701 334.352C347.687 339.085 356.322 340.171 356.025 344.856C356.24 348.202 353.066 348.831 351.174 350.887C348.66 353.622 354.566 356.994 356.429 358.174C356.802 362.775 356.65 363.364 352.302 365.978C350.362 367.141 350.804 370.418 352.665 371.737C355.097 373.457 357.017 374.801 356.644 377.82C356.338 381.439 351.165 380.057 351.297 384.099C351.446 388.528 357.939 388.668 356.884 393.939C356.474 395.99 355.899 396.119 354.054 397.167C347.283 401.019 352.5 403.299 355.994 406.45C357.017 409.839 356.84 414.079 355.637 417.416C351.3 418.088 345.082 417.985 340.714 417.477C339.608 412.232 338.184 410.759 332.259 413.079C331.008 416.356 331.41 418.249 326.697 417.974C321.891 417.689 323.4 411.976 318.432 412.077C314.364 412.157 315.407 414.214 313.445 416.463C312.027 418.025 308.664 417.609 306.683 417.523C305.591 415.096 303.794 411.184 299.817 412.424C297.559 413.131 296.672 415.627 295.794 417.497C293.526 417.695 289.373 418.453 288.252 416.178C284.193 407.927 281.502 411.175 278.073 417.635C276.045 417.824 272.467 418.364 271.308 416.669C269.488 413.829 269.852 411.433 265.171 411.813C260.175 412.22 262.648 418.453 256.176 417.692C252.153 417.218 253.545 415.205 251.553 412.697C251.227 412.287 250.182 412.022 249.648 412.062C245.448 411.537 245.274 414.834 242.798 416.44C236.314 420.645 235.973 412.269 231.816 412.08C227.051 411.867 226.852 417.999 221.479 417.388C217.595 416.948 218.59 414.662 216.221 412.453C215.482 411.755 214.566 411.545 213.571 411.623C208.712 411.807 210.599 413.952 208.625 416.196C207.311 417.689 204.061 417.281 201.935 417.212C201.125 415.595 200.118 413.576 198.473 412.574C194.212 409.972 191.863 414.966 190.38 417.54C188.193 417.672 186.308 417.637 184.112 417.603C183.314 415.604 181.483 411.411 178.411 411.557C175.239 411.709 174.464 415.837 172.827 417.313C165.406 419.608 166.719 413.145 161.346 411.27C157.801 410.032 156.364 414.843 155.815 417.057C153.21 417.152 151.903 417.161 149.324 416.937C148.523 414.63 147.86 412.054 145.088 411.135C141.097 411.126 140.062 415.618 137.607 417.046C131.691 420.188 130.921 411.425 126.999 411.79C119.946 412.444 124.206 418.235 114.716 417.261L113.359 415.274C109.183 409.061 105.815 411.985 102.902 416.879C100.421 417.623 99.0299 417.586 96.4604 417.566C96.3135 417.086 96.1622 416.609 96.0065 416.13C95.271 413.789 93.6609 411.218 90.3725 412.031C87.4959 412.743 86.1957 415.409 84.8809 417.632C82.5103 417.77 80.4722 417.712 78.1098 417.658C77.6108 415.374 77.6156 412.479 74.8521 411.591C72.2904 411.985 70.4927 414.616 68.581 416.219C66.4991 417.965 64.7585 417.626 62.0165 417.569C61.0552 415.196 59.4672 410.845 56.1823 410.871C50.119 413.522 54.7913 418.131 44.4906 417.528C40.5567 407.3 38.2095 410.164 33.2491 416.293C32.2109 417.574 28.5208 417.365 26.6625 417.373C24.0515 407.481 19.7209 408.432 14.8865 416.761C12.7099 417.491 4.35526 417.135 1.34574 417.172C0.722609 413.703 -0.321518 406.691 2.90845 403.891C10.9971 396.88 -0.639231 398.029 0.0277965 391.719C0.527752 386.994 4.65783 388.441 6.4492 385.069C7.60829 382.887 2.32322 380.79 1.49702 379.405C-0.0205321 377.283 0.640179 375.04 1.05044 372.613C2.79665 371.636 6.82187 370.105 6.75997 368.046C6.64027 364.065 -0.481957 363.815 0.595646 358.605C1.37037 354.857 3.56285 356.307 5.63847 354.337C9.95552 350.241 3.42862 348.796 0.971482 346.774C0.0821114 346.013 0.08748 344.115 0.230866 343.221C0.796197 339.689 6.69302 340.2 7.07738 336.644C7.40742 332 3.36514 333.048 1.01096 330.733C-0.335413 329.409 0.393201 325.911 0.656917 324.141C2.15141 323.604 6.10431 322.211 6.34339 320.838C7.11464 316.406 -0.261505 317.397 0.732404 311.377C1.6502 305.819 3.77382 308.261 6.58437 304.57C8.21025 302.436 3.17564 300.572 1.4806 300.075C0.984115 297.186 0.828728 295.118 1.03686 292.217C3.35219 291.522 8.46986 290.157 6.38888 286.659C5.29264 284.818 2.45019 284.427 0.324984 283.95C0.0328431 277.813 -0.917167 277.333 5.19568 274.452C10.1014 272.14 4.57887 269.144 1.55608 268.153C1.43954 266.608 0.846415 260.918 1.95718 260.315C7.42258 257.351 10.5111 255.392 1.57061 251.908C1.48944 250.07 1.13603 245.092 2.36208 244.193C6.78935 240.942 10.5689 238.917 1.58703 236.058C1.39596 233.67 1.31384 231.277 1.34037 228.883C7.56596 226.048 9.41861 223.094 1.62114 220.835C1.4288 218.327 1.46165 215.81 1.71968 213.307C3.6396 212.067 5.73795 211.759 6.78839 209.598C8.34858 206.389 4.33031 205.04 1.8918 204.119C0.850204 193.147 9.63116 196.219 5.90156 190.338C4.64203 189.924 2.9672 189.555 1.64672 189.228C1.4427 187.533 0.968957 182.649 2.23227 181.725C8.2093 177.354 11.637 176.229 1.89118 171.319C1.58988 168.47 1.6063 167.095 1.88833 164.254C3.77919 163.714 6.00925 163.192 7.33636 161.838C9.62485 154.522 1.41586 159.715 1.26647 152.61C1.15719 147.423 4.31958 148.217 7.00316 145.394C8.43955 141.856 2.49093 141.307 1.60882 138.539C1.4228 137.955 1.48945 136.64 1.41365 136.042C0.84579 131.558 6.22433 133.763 8.51313 129.674C8.744 126.767 4.74563 125.063 2.30902 123.992C1.81917 121.561 1.85328 120.571 2.01624 118.112C4.21851 117.055 6.84019 115.77 7.79494 113.572C7.91053 111.317 4.92565 110.178 3.41189 108.233C1.32553 105.552 1.77242 104.184 2.18742 101.149C10.6491 97.9573 8.50586 96.0097 2.40502 92.3761C1.798 89.7236 1.96287 88.6387 2.28438 86.0127C4.79142 84.7914 9.09551 82.8754 7.47026 79.3087C6.5711 77.3354 4.16766 76.9451 2.07562 76.3997C1.64325 74.2027 1.75758 72.2597 1.8915 70.0498C4.26841 68.9495 6.64501 68.732 7.87137 66.1019C7.73083 63.7892 5.10472 63.0123 3.58433 61.0158C2.16847 59.3313 2.08256 57.0907 2.48114 55.0566C3.01141 52.3481 7.46616 53.2767 7.57449 50.0655C7.70556 46.1794 5.19726 46.6353 2.76255 44.6641C1.24342 43.4342 2.06993 40.0197 2.3226 38.3598C4.59245 37.6751 9.1331 36.3513 8.70799 33.3909C8.17393 29.6723 1.41364 28.9315 1.39469 25.0971C1.37795 21.6689 3.7953 21.1464 5.89144 19.0365C6.37056 18.56 6.61501 17.9258 6.56795 17.2813C6.39014 14.9419 3.56253 13.2088 1.71873 11.8887C1.35805 8.86799 1.40669 3.93095 1.81443 0.920875C3.36009 0.778701 5.08577 0.669848 6.60648 0.522791C13.8263 -0.176305 14.601 0.253663 17.5856 6.11096C24.9475 7.51317 23.8333 6.40622 26.221 1.40599C27.5373 0.170657 31.639 0.283248 33.2421 0.982631C34.2389 1.41748 34.6589 4.45341 34.8753 5.45983C37.6381 6.43868 38.4927 6.33557 41.3977 6.24251C42.8543 2.55602 43.0861 -0.238057 48.741 0.710346C51.25 1.13112 51.8598 9.05756 57.5255 6.46281C60.0938 5.28635 60.5261 3.09801 61.2026 0.718673C62.0955 0.693398 64.6117 0.589425 65.3135 0.713217C68.4462 1.26526 68.8393 3.72875 70.2909 5.7706C70.7811 6.45993 72.1019 6.68052 72.874 6.68712C78.342 6.73365 76.556 3.33842 79.2355 0.943569C79.5585 0.654912 81.0982 0.498376 81.661 0.453282C86.9097 0.0310673 85.2952 4.73747 88.8404 5.74274C94.1428 7.24606 94.6883 1.64783 96.9887 0.896749C104.072 -1.41624 102.746 4.55681 106.056 5.37596C110.269 6.52599 111.198 2.6376 113.732 1.4261C120.571 -1.84334 120.532 5.48367 124.596 6.49124C128.833 7.54132 130.047 3.33928 132.51 1.60217C134.21 0.402444 136.889 1.0171 138.783 1.3879C141.21 10.7493 145.736 8.02242 149.094 1.01107C150.995 0.278652 153.856 0.7563 155.955 0.944143C156.129 1.48527 156.309 2.02467 156.494 2.56263C157.959 6.77645 159.718 6.30914 163.766 5.1031Z" fill="var(--fill-0, #ED9494)"/>
</svg>
