<svg preserveAspectRatio="none" width="100%" height="100%" overflow="visible" style="display: block;" viewBox="0 0 357 418.432" fill="none" xmlns="http://www.w3.org/2000/svg">
<path id="Vector" d="M163.766 5.10838C164.903 2.71968 166.24 0.21511 169.726 0.00867184C173.382 -0.207829 174.259 3.68488 176.417 5.49135C178.301 6.15811 179.623 5.54943 181.547 4.9813C182.688 3.34331 184.155 1.39825 186.233 0.58946C190.765 -1.17446 191.888 6.24925 194.835 6.78605C199.601 8.01921 199.797 2.21739 202.62 1.30164C209.618 -0.967737 208.115 5.56438 211.398 6.71187C216.145 8.37085 216.657 2.03539 219.903 0.8649C224.982 -0.965728 226.236 5.00257 230.013 6.4301C233.364 7.65234 235.6 3.52732 236.437 1.2864C240.189 -0.105473 242.684 0.0739412 244.459 3.47787C244.759 4.4192 245.129 5.29555 246.12 5.80417C246.831 6.17047 247.684 6.27599 248.467 6.03994C250.078 5.5549 251.044 4.14836 251.733 2.83785C252.251 1.8577 252.696 1.4431 253.817 1.05812C255.507 0.476754 257.942 0.504065 259.587 1.21193C262.562 2.49225 261.261 7.71875 266.415 6.14057C270.407 4.91747 270.859 -1.1966 276.636 1.01872C279.829 2.24326 278.698 8.36567 284.923 6.34183C288.58 5.15323 288.915 -0.961127 294.41 1.05639C297.903 2.33814 296.624 8.1394 302.524 6.05978C306.279 4.73662 306.304 -0.942726 311.655 0.903428C314.949 2.04085 314.017 8.37056 319.601 6.30963C323.89 4.7257 319.386 -0.177927 331.037 0.893653C333.529 11.5577 338.614 5.75501 342.381 1.57421C343.386 0.462665 352.984 0.897965 355.223 1.17542C355.589 3.67481 356.704 10.8447 355.021 13.0206C354.089 14.2259 350.754 14.6819 350.782 17.0645C350.833 21.4397 358.88 22.9035 355.002 28.3614C353.363 30.1846 348.878 30.5744 348.976 33.4269C348.998 34.0735 349.314 35.6255 350.04 36.0051C353.653 37.8964 357.63 40.1427 354.894 44.4739C353.881 46.0763 348.638 47.1731 349.026 49.8709C349.178 51.3649 351.408 52.9847 352.693 53.7803C353.42 54.2251 354.165 54.642 354.926 55.0307C355.555 57.5914 355.608 58.8688 355.283 61.5085C350.05 63.1712 348.088 63.0528 350.369 68.5349C351.266 69.0949 352.902 70.2258 353.944 70.3005C356.287 72.1211 355.772 73.6892 355.46 76.2593C352.343 80.1423 348.398 76.1406 350.776 84.8616C356.928 87.7931 354.544 87.3256 355.772 92.4837C351.367 95.9141 348.171 92.6122 349.696 100.21C350.902 100.864 352.699 101.898 353.903 102.416C354.863 103.297 355.997 105.023 355.892 106.28C355.64 109.243 350.501 109.905 349.936 112.759C349.75 113.71 350.021 115.126 350.732 115.897C354.831 119.759 355.883 118.961 355.453 124.81C350.82 126.437 348.104 126.643 350.186 131.675C351.72 132.625 353.145 133.523 354.632 134.532C355.482 136.756 356.316 138.929 354.642 141.05C349.026 141.897 347.877 143.521 350.331 148.306C353.053 149.502 358.043 152.039 355.934 155.227C352.895 159.814 349.197 156.847 350.047 163.552C350.637 165.182 353.009 166.116 354.727 167.034C355.716 169.488 355.64 170.53 355.466 173.147C353.353 173.725 351.547 173.939 350.283 175.802C348.433 178.528 352.283 181.685 354.806 182.806C355.599 185.089 355.877 186.156 355.166 188.604C350.615 190.801 349.036 190.768 350.713 195.575C352.412 196.934 354.37 198.23 355.198 200.128C356.821 207.739 350.343 204.038 349.923 209.625C349.743 212.014 354.124 213.555 355.242 215.966C356.685 222.462 349.506 221.107 349.765 226.131C349.857 227.9 353.508 229.725 355.359 230.609C355.874 233.127 355.754 234.15 355.457 236.613C352.144 238.523 347.39 241.102 352.409 244.342C356.998 247.151 357.661 252.373 351.9 254.336C349.118 255.282 349.383 259.541 351.269 260.484C355.981 262.836 356.335 263.172 355.397 268.333C348.354 272.605 348.587 273.939 355.349 278.485C356.18 281.737 356.42 284.336 352.608 286.297C347.245 289.051 353.018 292.277 355.728 294.184C356 295.742 356.136 296.964 355.911 298.571C355.441 301.958 350.58 301.903 350.091 304.773C349.589 307.711 353.113 308.508 354.749 310.446C356.489 312.51 356.05 314.681 355.747 317.09C354.152 317.717 352.033 318.373 350.353 318.971C350.498 323.539 350.779 323.111 354.866 325.776C356.031 326.535 356.211 328.134 356.303 329.258C356.553 332.406 353.786 332.915 351.701 334.698C347.687 339.436 356.322 340.523 356.025 345.212C356.24 348.562 353.066 349.192 351.174 351.25C348.66 353.987 354.566 357.363 356.429 358.545C356.802 363.151 356.65 363.74 352.302 366.356C350.362 367.521 350.805 370.801 352.665 372.121C355.097 373.843 357.017 375.189 356.644 378.211C356.338 381.834 351.165 380.451 351.297 384.496C351.446 388.929 357.939 389.07 356.884 394.346C356.474 396.399 355.899 396.529 354.054 397.578C347.283 401.434 352.5 403.717 355.994 406.871C357.017 410.263 356.84 414.507 355.637 417.848C351.3 418.521 345.082 418.417 340.714 417.908C339.608 412.658 338.184 411.183 332.259 413.506C331.008 416.787 331.41 418.682 326.697 418.406C321.891 418.121 323.4 412.402 318.432 412.503C314.364 412.584 315.407 414.642 313.445 416.893C312.027 418.458 308.664 418.041 306.683 417.954C305.591 415.525 303.794 411.609 299.817 412.851C297.559 413.558 296.672 416.057 295.794 417.929C293.526 418.127 289.373 418.886 288.252 416.609C284.193 408.348 281.502 411.6 278.073 418.067C276.045 418.256 272.467 418.797 271.308 417.1C269.488 414.257 269.852 411.859 265.171 412.239C260.175 412.647 262.648 418.886 256.176 418.124C252.153 417.65 253.545 415.634 251.553 413.124C251.227 412.713 250.182 412.448 249.648 412.489C245.448 411.963 245.274 415.263 242.798 416.87C236.314 421.08 235.973 412.696 231.816 412.506C227.051 412.293 226.852 418.432 221.479 417.819C217.595 417.379 218.59 415.091 216.221 412.88C215.482 412.181 214.566 411.971 213.571 412.049C208.712 412.233 210.6 414.381 208.625 416.626C207.311 418.121 204.061 417.713 201.935 417.644C201.125 416.025 200.118 414.004 198.473 413C194.212 410.396 191.863 415.395 190.38 417.972C188.193 418.104 186.308 418.069 184.112 418.035C183.314 416.034 181.483 411.836 178.411 411.983C175.239 412.135 174.464 416.267 172.827 417.745C165.406 420.042 166.719 413.573 161.346 411.695C157.801 410.456 156.364 415.272 155.815 417.489C153.21 417.584 151.903 417.592 149.324 417.368C148.523 415.059 147.86 412.48 145.088 411.56C141.097 411.551 140.062 416.048 137.607 417.477C131.691 420.623 130.921 411.85 126.999 412.216C119.946 412.871 124.206 418.667 114.716 417.693L113.359 415.703C109.183 409.484 105.815 412.411 102.902 417.31C100.421 418.055 99.03 418.018 96.4604 417.998C96.3135 417.517 96.1622 417.04 96.0065 416.56C95.271 414.217 93.6609 411.643 90.3725 412.457C87.4959 413.17 86.1957 415.838 84.8809 418.064C82.5103 418.202 80.4722 418.144 78.1098 418.09C77.6108 415.804 77.6156 412.906 74.8521 412.017C72.2904 412.411 70.4927 415.045 68.581 416.649C66.4991 418.397 64.7585 418.058 62.0165 418C61.0552 415.625 59.4672 411.27 56.1823 411.295C50.119 413.949 54.7913 418.564 44.4906 417.96C40.5567 407.722 38.2095 410.588 33.2491 416.724C32.2109 418.006 28.5208 417.796 26.6625 417.805C24.0515 407.903 19.7209 408.854 14.8865 417.192C12.7099 417.923 4.35526 417.566 1.34574 417.604C0.722609 414.13 -0.321518 407.112 2.90845 404.309C10.9971 397.29 -0.639231 398.441 0.0277966 392.124C0.527752 387.394 4.65783 388.843 6.4492 385.468C7.60829 383.283 2.32322 381.184 1.49702 379.798C-0.0205321 377.673 0.640179 375.428 1.05044 372.998C2.79665 372.021 6.82187 370.488 6.75997 368.427C6.64027 364.442 -0.481957 364.191 0.595646 358.976C1.37037 355.224 3.56285 356.676 5.63847 354.703C9.95552 350.603 3.42862 349.157 0.971482 347.133C0.0821113 346.371 0.08748 344.471 0.230866 343.576C0.796197 340.04 6.69302 340.552 7.07738 336.992C7.40742 332.343 3.36514 333.392 1.01096 331.075C-0.335413 329.75 0.393201 326.248 0.656917 324.477C2.15141 323.939 6.10431 322.544 6.34339 321.17C7.11465 316.734 -0.261505 317.726 0.732404 311.699C1.6502 306.136 3.77382 308.58 6.58437 304.885C8.21025 302.749 3.17564 300.883 1.4806 300.385C0.984115 297.493 0.828728 295.423 1.03686 292.519C3.35219 291.823 8.46987 290.457 6.38888 286.955C5.29264 285.112 2.45019 284.721 0.324984 284.244C0.0328431 278.1 -0.917167 277.62 5.19568 274.736C10.1014 272.421 4.57887 269.423 1.55608 268.431C1.43954 266.884 0.846415 261.188 1.95718 260.584C7.42258 257.617 10.5111 255.656 1.57061 252.169C1.48944 250.329 1.13603 245.346 2.36208 244.446C6.78935 241.191 10.5689 239.164 1.58703 236.302C1.39596 233.912 1.31384 231.516 1.34037 229.12C7.56596 226.282 9.41861 223.325 1.62114 221.063C1.4288 218.553 1.46165 216.033 1.71968 213.527C3.6396 212.286 5.73795 211.978 6.78839 209.815C8.34858 206.603 4.33031 205.252 1.8918 204.33C0.850204 193.347 9.63116 196.422 5.90156 190.535C4.64204 190.12 2.9672 189.751 1.64672 189.424C1.4427 187.727 0.968957 182.838 2.23227 181.913C8.2093 177.537 11.637 176.412 1.89118 171.496C1.58988 168.644 1.6063 167.267 1.88833 164.424C3.77919 163.883 6.00925 163.361 7.33636 162.005C9.62485 154.682 1.41586 159.881 1.26647 152.768C1.1572 147.575 4.31958 148.37 7.00316 145.545C8.43955 142.003 2.49093 141.453 1.60882 138.682C1.4228 138.097 1.48945 136.782 1.41365 136.183C0.84579 131.694 6.22433 133.901 8.51313 129.808C8.744 126.898 4.74563 125.192 2.30902 124.121C1.81917 121.687 1.85328 120.696 2.01624 118.234C4.21851 117.176 6.84019 115.89 7.79494 113.689C7.91053 111.432 4.92565 110.292 3.41189 108.345C1.32553 105.662 1.77242 104.291 2.18742 101.254C10.6491 98.0587 8.50586 96.109 2.40502 92.4716C1.798 89.8164 1.96287 88.7304 2.28438 86.1016C4.79142 84.8791 9.09551 82.9611 7.47026 79.3907C6.5711 77.4154 4.16766 77.0247 2.07562 76.4787C1.64325 74.2795 1.75758 72.3344 1.8915 70.1223C4.26841 69.0208 6.64501 68.8031 7.87137 66.1703C7.73083 63.8552 5.10472 63.0775 3.58433 61.0789C2.16847 59.3927 2.08256 57.1497 2.48114 55.1135C3.01141 52.4022 7.46616 53.3318 7.57449 50.1173C7.70556 46.2272 5.19726 46.6835 2.76255 44.7103C1.24342 43.4791 2.06993 40.0611 2.3226 38.3995C4.59245 37.7141 9.1331 36.3889 8.708 33.4255C8.17393 29.703 1.41364 28.9615 1.39469 25.1231C1.37795 21.6913 3.7953 21.1683 5.89145 19.0562C6.37056 18.5792 6.61501 17.9443 6.56795 17.2991C6.39014 14.9573 3.56253 13.2224 1.71873 11.901C1.35805 8.87717 1.40669 3.93502 1.81443 0.921828C3.36009 0.779506 5.08577 0.670541 6.60648 0.523332C13.8263 -0.176487 14.601 0.253925 17.5856 6.11728C24.9475 7.52094 23.8333 6.41285 26.221 1.40745C27.5373 0.170834 31.639 0.283541 33.2421 0.983647C34.2389 1.41895 34.6589 4.45801 34.8753 5.46548C37.6381 6.44534 38.4927 6.34212 41.3977 6.24896C42.8543 2.55867 43.0861 -0.238304 48.741 0.711081C51.25 1.13229 51.8598 9.06693 57.5255 6.46949C60.0938 5.29182 60.5261 3.10122 61.2026 0.719417C62.0955 0.694115 64.6117 0.590034 65.3135 0.713955C68.4462 1.26656 68.8393 3.73261 70.2909 5.77657C70.7811 6.46662 72.1019 6.68743 72.8741 6.69404C78.342 6.74062 76.556 3.34187 79.2355 0.944545C79.5586 0.655589 81.0982 0.498891 81.661 0.453751C86.9098 0.0310994 85.2952 4.74237 88.8404 5.74868C94.1428 7.25355 94.6883 1.64954 96.9888 0.897676C104.072 -1.41771 102.746 4.56152 106.056 5.38152C110.269 6.53274 111.198 2.64032 113.732 1.42757C120.571 -1.84525 120.532 5.48934 124.596 6.49796C128.833 7.54912 130.047 3.34273 132.51 1.60382C134.21 0.40286 136.889 1.01815 138.783 1.38933C141.21 10.7604 145.736 8.03071 149.094 1.01211C150.995 0.27894 153.856 0.757082 155.955 0.945119C156.129 1.4868 156.309 2.02676 156.494 2.56528C157.959 6.78346 159.718 6.31567 163.766 5.10838Z" fill="var(--fill-0, #FFD08F)"/>
</svg>
