<svg preserveAspectRatio="none" width="100%" height="100%" overflow="visible" style="display: block;" viewBox="0 0 400 464" fill="none" xmlns="http://www.w3.org/2000/svg">
<path id="Vector" d="M183.491 5.66469C184.766 3.01586 186.263 0.238535 190.169 0.00961621C194.265 -0.230462 195.248 4.08616 197.666 6.08937C199.777 6.82873 201.258 6.15377 203.414 5.52376C204.692 3.70739 206.336 1.55052 208.664 0.653652C213.743 -1.30236 215.001 6.9298 218.302 7.52506C223.643 8.89251 223.862 2.45886 227.025 1.44339C234.866 -1.07312 233.182 6.17035 236.861 7.44279C242.179 9.28244 242.753 2.25704 246.39 0.959088C252.081 -1.0709 253.486 5.54736 257.718 7.13034C261.472 8.48569 263.978 3.91145 264.915 1.42649C269.119 -0.116959 271.915 0.0819935 273.904 3.85661C274.24 4.90046 274.654 5.87224 275.765 6.43625C276.561 6.84244 277.517 6.95945 278.394 6.69769C280.199 6.15983 281.282 4.60012 282.053 3.14689C282.634 2.06 283.133 1.60026 284.389 1.17335C286.282 0.528673 289.01 0.558958 290.854 1.34391C294.187 2.76366 292.73 8.55933 298.505 6.80928C302.978 5.45298 303.484 -1.32691 309.956 1.12966C313.533 2.48756 312.267 9.2767 319.241 7.03247C323.339 5.71443 323.714 -1.0658 329.872 1.17143C333.785 2.59277 332.352 9.02578 338.962 6.71969C343.17 5.25244 343.198 -1.04539 349.193 1.00181C352.884 2.2631 351.84 9.28212 358.096 6.99676C362.902 5.24033 357.855 -0.197303 370.91 0.990973C373.702 12.8163 379.399 6.38174 383.621 1.74564C384.746 0.51305 395.5 0.995754 398.009 1.30342C398.419 4.075 399.669 12.0256 397.782 14.4385C396.738 15.7751 393.002 16.2807 393.033 18.9229C393.09 23.7745 402.107 25.3977 397.761 31.45C395.925 33.4717 390.9 33.904 391.009 37.0671C391.034 37.7842 391.388 39.5052 392.202 39.9261C396.25 42.0233 400.705 44.5143 397.641 49.3172C396.505 51.094 390.631 52.3103 391.066 55.3019C391.236 56.9585 393.734 58.7548 395.174 59.637C395.988 60.1303 396.823 60.5926 397.676 61.0236C398.38 63.8631 398.441 65.2797 398.076 68.2068C392.213 70.0506 390.015 69.9193 392.57 75.9984C393.575 76.6194 395.408 77.8734 396.576 77.9563C399.201 79.9751 398.625 81.714 398.274 84.564C394.782 88.8698 390.362 84.4324 393.026 94.1031C399.92 97.3539 397.248 96.8354 398.625 102.555C393.688 106.359 390.107 102.698 391.816 111.122C393.168 111.848 395.181 112.995 396.53 113.57C397.605 114.546 398.876 116.46 398.759 117.854C398.476 121.14 392.719 121.874 392.085 125.038C391.876 126.093 392.181 127.663 392.977 128.518C397.57 132.801 398.748 131.916 398.267 138.402C393.076 140.206 390.033 140.435 392.365 146.014C394.085 147.068 395.68 148.064 397.347 149.182C398.299 151.649 399.233 154.059 397.358 156.411C391.066 157.35 389.778 159.151 392.527 164.456C395.578 165.783 401.169 168.597 398.805 172.131C395.401 177.218 391.257 173.928 392.209 181.363C392.871 183.171 395.528 184.206 397.453 185.224C398.561 187.946 398.476 189.101 398.281 192.003C395.914 192.644 393.89 192.881 392.474 194.947C390.401 197.97 394.714 201.47 397.542 202.714C398.43 205.245 398.741 206.428 397.945 209.143C392.846 211.579 391.077 211.543 392.956 216.874C394.859 218.38 397.053 219.818 397.981 221.922C399.799 230.362 392.542 226.258 392.071 232.453C391.869 235.102 396.777 236.812 398.03 239.485C399.647 246.688 391.604 245.186 391.894 250.757C391.997 252.719 396.087 254.742 398.161 255.722C398.738 258.515 398.603 259.65 398.271 262.38C394.559 264.498 389.233 267.358 394.856 270.951C399.998 274.066 400.741 279.856 394.286 282.034C391.169 283.083 391.466 287.805 393.578 288.851C398.858 291.459 399.255 291.832 398.204 297.555C390.312 302.292 390.574 303.772 398.15 308.812C399.081 312.418 399.35 315.301 395.079 317.475C389.07 320.529 395.539 324.107 398.575 326.221C398.879 327.949 399.032 329.304 398.78 331.086C398.253 334.842 392.807 334.781 392.259 337.963C391.696 341.221 395.645 342.105 397.478 344.253C399.428 346.543 398.936 348.95 398.596 351.622C396.809 352.317 394.435 353.044 392.552 353.707C392.715 358.773 393.03 358.298 397.609 361.253C398.915 362.095 399.117 363.868 399.219 365.114C399.499 368.606 396.399 369.17 394.063 371.147C389.566 376.401 399.24 377.606 398.908 382.806C399.148 386.521 395.592 387.219 393.472 389.502C390.656 392.537 397.273 396.28 399.361 397.59C399.778 402.698 399.608 403.352 394.736 406.253C392.563 407.544 393.058 411.182 395.143 412.645C397.867 414.555 400.019 416.047 399.601 419.398C399.258 423.416 393.462 421.882 393.61 426.368C393.777 431.284 401.052 431.44 399.87 437.291C399.41 439.567 398.766 439.711 396.7 440.875C389.113 445.15 394.959 447.682 398.872 451.179C400.019 454.941 399.821 459.647 398.472 463.352C393.614 464.098 386.646 463.983 381.752 463.419C380.514 457.597 378.918 455.962 372.279 458.538C370.878 462.176 371.327 464.277 366.048 463.971C360.662 463.655 362.353 457.313 356.787 457.425C352.229 457.514 353.397 459.797 351.199 462.294C349.61 464.028 345.842 463.566 343.623 463.47C342.399 460.776 340.385 456.433 335.93 457.811C333.4 458.595 332.405 461.366 331.421 463.441C328.881 463.661 324.227 464.503 322.971 461.978C318.424 452.818 315.409 456.424 311.566 463.594C309.294 463.805 305.285 464.404 303.986 462.523C301.948 459.37 302.355 456.711 297.11 457.132C291.512 457.584 294.283 464.503 287.032 463.658C282.524 463.132 284.085 460.897 281.852 458.114C281.487 457.658 280.316 457.364 279.718 457.409C275.011 456.826 274.817 460.486 272.042 462.268C264.777 466.936 264.395 457.639 259.738 457.428C254.398 457.192 254.176 463.999 248.156 463.32C243.804 462.832 244.918 460.294 242.264 457.843C241.436 457.068 240.41 456.835 239.295 456.921C233.851 457.125 235.966 459.507 233.753 461.997C232.281 463.655 228.64 463.202 226.258 463.126C225.35 461.331 224.222 459.089 222.379 457.977C217.604 455.088 214.973 460.632 213.311 463.489C210.861 463.636 208.749 463.598 206.288 463.559C205.393 461.34 203.343 456.685 199.9 456.848C196.347 457.017 195.478 461.599 193.643 463.237C185.328 465.785 186.8 458.611 180.779 456.529C176.808 455.155 175.197 460.495 174.583 462.954C171.664 463.059 170.199 463.068 167.309 462.82C166.413 460.259 165.67 457.4 162.564 456.379C158.092 456.37 156.933 461.356 154.182 462.941C147.553 466.429 146.69 456.701 142.296 457.106C134.393 457.833 139.166 464.261 128.533 463.18L127.013 460.974C122.333 454.077 118.56 457.323 115.296 462.756C112.516 463.582 110.958 463.54 108.079 463.518C107.914 462.985 107.745 462.456 107.57 461.924C106.746 459.325 104.942 456.472 101.258 457.374C98.0347 458.165 96.5778 461.123 95.1046 463.591C92.4485 463.744 90.165 463.68 87.518 463.62C86.9589 461.085 86.9642 457.871 83.8679 456.886C80.9976 457.323 78.9834 460.243 76.8415 462.023C74.5088 463.961 72.5586 463.585 69.4863 463.521C68.4091 460.887 66.6299 456.057 62.9493 456.086C56.1557 459.029 61.3909 464.146 49.8494 463.476C45.4417 452.123 42.8117 455.302 37.2539 462.105C36.0907 463.527 31.9561 463.295 29.8739 463.304C26.9485 452.324 22.0963 453.379 16.6796 462.625C14.2407 463.435 4.87984 463.04 1.50783 463.081C0.809646 459.23 -0.360244 451.447 3.25877 448.338C12.3217 440.556 -0.716226 441.831 0.0311446 434.826C0.591318 429.582 5.21886 431.189 7.226 427.446C8.5247 425.022 2.60305 422.695 1.67733 421.158C-0.0230052 418.802 0.717287 416.312 1.17696 413.618C3.1335 412.534 7.64356 410.835 7.5742 408.549C7.44008 404.13 -0.540008 403.852 0.667391 398.069C1.53543 393.908 3.99199 395.518 6.31761 393.331C11.1546 388.784 3.84159 387.181 1.08849 384.936C0.0920015 384.091 0.0980168 381.984 0.258673 380.992C0.892098 377.071 7.49918 377.638 7.92984 373.691C8.29963 368.535 3.77046 369.699 1.13273 367.129C-0.375813 365.66 0.440561 361.776 0.736041 359.812C2.41055 359.216 6.83957 357.67 7.10744 356.146C7.97159 351.226 -0.293003 352.326 0.820621 345.644C1.84896 339.474 4.22837 342.184 7.37745 338.087C9.19916 335.718 3.55814 333.649 1.65893 333.098C1.10265 329.89 0.928547 327.595 1.16175 324.374C3.75596 323.603 9.49004 322.088 7.15841 318.205C5.93013 316.161 2.74531 315.728 0.364127 315.199C0.036799 308.385 -1.02764 307.853 5.82149 304.655C11.3181 302.088 5.13038 298.763 1.74351 297.663C1.61293 295.948 0.948364 289.632 2.19292 288.962C8.31661 285.672 11.7771 283.497 1.75978 279.63C1.66884 277.59 1.27287 272.064 2.64658 271.066C7.60711 267.457 11.8419 265.209 1.77819 262.035C1.5641 259.385 1.47209 256.728 1.50181 254.071C8.47727 250.925 10.5531 247.645 1.8164 245.137C1.6009 242.354 1.63771 239.559 1.92682 236.781C4.07798 235.405 6.42908 235.062 7.60604 232.664C9.35415 229.102 4.85189 227.604 2.11967 226.582C0.95261 214.402 10.7912 217.813 6.61239 211.284C5.20116 210.824 3.32459 210.415 1.84507 210.052C1.61647 208.17 1.08567 202.749 2.50114 201.724C9.1981 196.871 13.0386 195.623 2.11897 190.172C1.78138 187.01 1.79978 185.483 2.11578 182.33C4.23439 181.73 6.73306 181.151 8.22001 179.648C10.7841 171.527 1.5864 177.292 1.41902 169.404C1.29658 163.646 4.83986 164.528 7.84668 161.395C9.45608 157.467 2.79096 156.858 1.8026 153.785C1.59417 153.136 1.66885 151.677 1.58392 151.013C0.947664 146.036 6.97403 148.483 9.53852 143.944C9.7972 140.718 5.31723 138.826 2.58713 137.638C2.03828 134.939 2.0765 133.84 2.2591 131.11C4.72662 129.937 7.66408 128.51 8.73383 126.07C8.86334 123.567 5.51893 122.303 3.82284 120.144C1.48519 117.168 1.98591 115.649 2.45089 112.28C11.9317 108.737 9.53038 106.575 2.6947 102.542C2.01457 99.5975 2.19929 98.3932 2.55953 95.4782C5.36854 94.1225 10.1911 91.9956 8.37004 88.0364C7.36258 85.846 4.66964 85.4128 2.32562 84.8073C1.84117 82.3686 1.96928 80.2117 2.11932 77.7586C4.78254 76.5372 7.44539 76.2958 8.81946 73.3763C8.66199 70.8091 5.71957 69.9467 4.01605 67.7305C2.42966 65.8606 2.3334 63.3734 2.77999 61.1154C3.37413 58.1089 8.36545 59.1397 8.48683 55.5751C8.63368 51.2614 5.82326 51.7674 3.09529 49.5792C1.39318 48.214 2.31925 44.4238 2.60235 42.5813C5.1456 41.8212 10.2332 40.3517 9.75686 37.0655C9.15847 32.9376 1.58391 32.1154 1.56268 27.859C1.54392 24.0535 4.25243 23.4735 6.60106 21.1314C7.13788 20.6025 7.41177 19.8985 7.35904 19.183C7.15982 16.5862 3.99163 14.6624 1.92575 13.197C1.52163 9.8439 1.57613 4.36354 2.03297 1.02222C3.7648 0.864395 5.69834 0.743563 7.40222 0.580323C15.4917 -0.195707 16.3597 0.281578 19.7037 6.78346C27.9524 8.33998 26.704 7.11122 29.3792 1.56072C30.8541 0.189437 35.4498 0.314419 37.2461 1.09077C38.3629 1.57347 38.8335 4.9435 39.0759 6.06067C42.1716 7.14724 43.1291 7.03278 46.384 6.92948C48.0161 2.83731 48.2758 -0.264255 54.6118 0.788518C57.4229 1.2556 58.1063 10.0543 64.4543 7.17403C67.332 5.8681 67.8164 3.43894 68.5744 0.797762C69.5748 0.769705 72.3941 0.654289 73.1804 0.791705C76.6904 1.40449 77.1309 4.13909 78.7573 6.40565C79.3065 7.17084 80.7864 7.4157 81.6516 7.42303C87.7781 7.47468 85.777 3.7058 88.7792 1.04741C89.1412 0.726983 90.8663 0.553221 91.4969 0.503165C97.3779 0.0344862 95.5689 5.25882 99.5411 6.37472C105.482 8.04347 106.093 1.82917 108.671 0.995434C116.608 -1.5721 115.121 5.05827 118.83 5.96757C123.551 7.24416 124.592 2.92786 127.431 1.58304C135.094 -2.04619 135.05 6.08714 139.603 7.20559C144.351 8.37123 145.711 3.70676 148.47 1.77848C150.375 0.446732 153.377 1.12903 155.499 1.54063C158.218 11.9322 163.289 8.90527 167.052 1.12233C169.182 0.309317 172.387 0.839529 174.739 1.04804C174.934 1.64872 175.136 2.24748 175.344 2.84464C176.985 7.52218 178.956 7.00345 183.491 5.66469Z" fill="var(--fill-0, #ABD4B0)"/>
</svg>
