<svg preserveAspectRatio="none" width="100%" height="100%" overflow="visible" style="display: block;" viewBox="0 0 18 18" fill="none" xmlns="http://www.w3.org/2000/svg">
<g id="edit-2" clip-path="url(#clip0_0_6)">
<path id="Vector" d="M16.5006 3.61379C16.5005 4.17449 16.2777 4.7122 15.8811 5.10862L5.86999 15.1202C5.69611 15.2935 5.48233 15.4215 5.24744 15.4929L1.98239 16.4829C1.91756 16.5024 1.84865 16.504 1.78299 16.4875C1.71734 16.471 1.65737 16.437 1.60946 16.3892C1.56155 16.3414 1.52748 16.2814 1.51087 16.2158C1.49425 16.1502 1.49572 16.0813 1.5151 16.0164L2.50594 12.7525C2.57803 12.5174 2.70682 12.3036 2.88097 12.13L12.8914 2.11843C13.2879 1.722 13.8258 1.49933 14.3865 1.4994C14.9473 1.49947 15.485 1.72228 15.8815 2.1188C16.278 2.51533 16.5007 3.05309 16.5006 3.61379Z" stroke="var(--stroke-0, #9CA3AF)" stroke-width="2" stroke-linecap="round"/>
</g>
<defs>
<clipPath id="clip0_0_6">
<rect width="18" height="18" fill="white"/>
</clipPath>
</defs>
</svg>
